G04 PROTEUS GERBER X2 FILE*
%TF.GenerationSoftware,Labcenter,Proteus,8.11-SP0-Build30052*%
%TF.CreationDate,2021-11-27T06:41:44+00:00*%
%TF.FileFunction,Copper,L2,Bot*%
%TF.FilePolarity,Positive*%
%TF.Part,Single*%
%TF.SameCoordinates,{e397242e-da90-49e6-b63e-a6f9376aac74}*%
%FSLAX45Y45*%
%MOMM*%
G01*
%TA.AperFunction,Conductor*%
%ADD10C,0.254000*%
%TA.AperFunction,ViaPad*%
%ADD11C,0.762000*%
%TA.AperFunction,OtherPad,Unknown*%
%ADD12C,0.762000*%
%ADD13C,1.270000*%
%TA.AperFunction,ComponentPad*%
%ADD14C,1.500000*%
%TA.AperFunction,ComponentPad*%
%ADD15R,1.270000X1.270000*%
%ADD16C,1.270000*%
%TA.AperFunction,WasherPad*%
%ADD17R,1.180000X1.180000*%
%TA.AperFunction,ComponentPad*%
%ADD18C,1.180000*%
%TA.AperFunction,WasherPad*%
%ADD19R,1.130000X1.130000*%
%TA.AperFunction,ComponentPad*%
%ADD70C,1.130000*%
%TA.AperFunction,ComponentPad*%
%ADD71C,2.250000*%
%TA.AperFunction,ComponentPad*%
%ADD20R,2.032000X2.032000*%
%ADD21C,1.778000*%
%ADD22C,2.286000*%
%TA.AperFunction,WasherPad*%
%ADD23C,1.397000*%
%TA.AperFunction,ComponentPad*%
%ADD24C,2.780000*%
%TA.AperFunction,OtherPad,Unknown*%
%ADD25C,1.778000*%
%TA.AperFunction,Profile*%
%ADD26C,0.203200*%
%TD.AperFunction*%
D10*
X-1642000Y+28152000D02*
X-1430000Y+27940000D01*
X-1333500Y+27940000D01*
X-1270000Y+28003500D01*
X-1270000Y+28638500D01*
X-866000Y+29042500D01*
X-866000Y+29380000D01*
X-2150000Y+27390000D02*
X-2150000Y+27644000D01*
X-1642000Y+28152000D01*
X-1828000Y+35164000D02*
X-1714500Y+35050500D01*
X-1714500Y+33043000D01*
X-1628000Y+32956500D01*
X-1628000Y+30142000D01*
X-1574000Y+35164000D02*
X-1374000Y+34964000D01*
X-1374000Y+30142000D01*
X-1828000Y+33640000D02*
X-1828000Y+31355500D01*
X-1778000Y+31305500D01*
X-1778000Y+30099000D01*
X-1714500Y+30035500D01*
X-1226500Y+30035500D01*
X-1120000Y+30142000D01*
X-1388000Y+28152000D02*
X-1388000Y+28892500D01*
X-1120000Y+29160500D01*
X-1120000Y+29380000D01*
X-2336000Y+33640000D02*
X-2336000Y+30403000D01*
X-2286000Y+30353000D01*
X-2286000Y+30035500D01*
X-2222500Y+29972000D01*
X-1036000Y+29972000D01*
X-866000Y+30142000D01*
X-2600000Y+35940000D02*
X-2199676Y+35539676D01*
X-906676Y+35539676D01*
X-800000Y+35433000D01*
X-800000Y+32760000D01*
X-16647000Y+23913000D02*
X-16493500Y+24066500D01*
X-13398500Y+24066500D01*
X-12890500Y+24574500D01*
X-1374000Y+29380000D02*
X-1374000Y+29572839D01*
X-1270000Y+29676839D01*
X-612661Y+29676839D01*
X-508000Y+29781500D01*
X-508000Y+31410000D01*
X-810000Y+31712000D01*
X-11892000Y+29370000D02*
X-11747500Y+29225500D01*
X-11747500Y+28003500D01*
X-11493500Y+27749500D01*
X-11493500Y+24701500D01*
X-1882000Y+29380000D02*
X-2029500Y+29527500D01*
X-2603500Y+29527500D01*
X-4638000Y+29380000D02*
X-4638000Y+29588500D01*
X-4572000Y+29654500D01*
X-3175000Y+29654500D01*
X-3048000Y+29527500D01*
X-2603500Y+29527500D02*
X-3048000Y+29527500D01*
X-3096300Y+25869000D02*
X-3096300Y+29479200D01*
X-3048000Y+29527500D01*
X-12220000Y+24542000D02*
X-12509500Y+24542000D01*
X-12542000Y+24574500D01*
X-12890500Y+24574500D01*
X-810000Y+31712000D02*
X-810000Y+31940500D01*
X-800000Y+31950500D01*
X-800000Y+32760000D01*
X-16647000Y+24675000D02*
X-16647000Y+24929000D01*
X-1887000Y+24609000D02*
X-1887000Y+24863000D01*
X-1093000Y+24355000D02*
X-1093000Y+24609000D01*
X-16647000Y+24675000D02*
X-16827500Y+24494500D01*
X-16827500Y+24093500D01*
X-16647000Y+23913000D01*
X-2590000Y+33640000D02*
X-2590000Y+29972000D01*
X-2526500Y+29908500D01*
X-845500Y+29908500D01*
X-612000Y+30142000D01*
X-2336000Y+35164000D02*
X-2222500Y+35050500D01*
X-2222500Y+30693500D01*
X-2136000Y+30607000D01*
X-2136000Y+30142000D01*
X-2590000Y+35164000D02*
X-2384500Y+35369500D01*
X-2032000Y+35369500D01*
X-1968500Y+35306000D01*
X-1968500Y+30503000D01*
X-1882000Y+30416500D01*
X-1882000Y+30142000D01*
X-4632000Y+28142000D02*
X-4508500Y+28265500D01*
X-4508500Y+29464000D01*
X-4445000Y+29527500D01*
X-4023500Y+29527500D01*
X-3876000Y+29380000D01*
X-4632000Y+28142000D02*
X-4632000Y+27888000D01*
X-5140000Y+27380000D01*
X-3828000Y+35174000D02*
X-4762500Y+34239500D01*
X-4762500Y+30266500D01*
X-4638000Y+30142000D01*
X-5524500Y+27876500D02*
X-5400000Y+28001000D01*
X-5400000Y+29380000D01*
X-3574000Y+35174000D02*
X-3365500Y+34965500D01*
X-3365500Y+29972000D01*
X-3429000Y+29908500D01*
X-4318000Y+29908500D01*
X-4384000Y+29974500D01*
X-4384000Y+30142000D01*
X-5270500Y+28448000D02*
X-5270500Y+29255500D01*
X-5146000Y+29380000D01*
X-4130000Y+30142000D02*
X-4130000Y+33131500D01*
X-4463000Y+33464500D01*
X-4463000Y+33782000D01*
X-4399500Y+33845500D01*
X-4318000Y+33845500D01*
X-4209000Y+33736500D01*
X-4209000Y+33591500D01*
X-4145500Y+33528000D01*
X-3950000Y+33528000D01*
X-3828000Y+33650000D01*
X-4378000Y+28142000D02*
X-4378000Y+28962000D01*
X-4130000Y+29210000D01*
X-4130000Y+29380000D01*
X-3876000Y+30142000D02*
X-3876000Y+33004500D01*
X-4336000Y+33464500D01*
X-4336000Y+33650000D01*
X-4590000Y+33650000D02*
X-4590000Y+33165000D01*
X-4254500Y+32829500D01*
X-4254500Y+30099000D01*
X-4191000Y+30035500D01*
X-3728500Y+30035500D01*
X-3622000Y+30142000D01*
X-4336000Y+35174000D02*
X-4531500Y+35369500D01*
X-5080000Y+35369500D01*
X-5146000Y+35303500D01*
X-5146000Y+30142000D01*
X-4590000Y+35174000D02*
X-4892000Y+34872000D01*
X-4892000Y+30142000D01*
X-8763000Y+27686000D02*
X-8763000Y+26011000D01*
X-8632000Y+25880000D01*
X-5143500Y+28321000D02*
X-5140000Y+28317500D01*
X-5140000Y+28142000D01*
X-12827000Y+26606500D02*
X-12827000Y+31157000D01*
X-12494000Y+31490000D01*
X-14622000Y+25880000D02*
X-14622000Y+25590500D01*
X-14558500Y+25527000D01*
X-13335000Y+25527000D01*
X-13271500Y+25590500D01*
X-13271500Y+31813500D01*
X-13145000Y+31940000D01*
X-12494000Y+31940000D01*
X-12140000Y+28142000D02*
X-12140000Y+27940000D01*
X-11747500Y+27547500D01*
X-11747500Y+24595500D01*
X-11684000Y+24532000D01*
X-11150000Y+24532000D01*
X-12140000Y+28142000D02*
X-12001500Y+28280500D01*
X-12001500Y+31242000D01*
X-8632000Y+28142000D02*
X-8509000Y+28265000D01*
X-8509000Y+29527500D01*
X-8445500Y+29591000D01*
X-8087000Y+29591000D01*
X-7876000Y+29380000D01*
X-9140000Y+27380000D02*
X-9140000Y+27634000D01*
X-8632000Y+28142000D01*
X-14478000Y+27241500D02*
X-14732000Y+26987500D01*
X-14732000Y+26024000D01*
X-14876000Y+25880000D01*
X-8228000Y+35164000D02*
X-7747000Y+35645000D01*
X-7747000Y+36131500D01*
X-7810500Y+36195000D01*
X-8509000Y+36195000D01*
X-8609000Y+36095000D01*
X-8609000Y+31715500D01*
X-8638000Y+31686500D01*
X-8638000Y+30142000D01*
X-7974000Y+35164000D02*
X-8355000Y+34783000D01*
X-8355000Y+30509000D01*
X-8384000Y+30480000D01*
X-8384000Y+30142000D01*
X-8228000Y+33640000D02*
X-8228000Y+32292500D01*
X-8130000Y+32194500D01*
X-8130000Y+30142000D01*
X-8378000Y+28142000D02*
X-8378000Y+28829000D01*
X-8130000Y+29077000D01*
X-8130000Y+29380000D01*
X-8378000Y+28142000D02*
X-8378000Y+27622500D01*
X-8509000Y+27491500D01*
X-8509000Y+26225500D01*
X-14986000Y+26225500D02*
X-14986000Y+26024000D01*
X-15130000Y+25880000D01*
X-8736000Y+33640000D02*
X-8736000Y+30380000D01*
X-8763000Y+30353000D01*
X-8763000Y+30099000D01*
X-8699500Y+30035500D01*
X-7982500Y+30035500D01*
X-7876000Y+30142000D01*
X-8990000Y+33640000D02*
X-8990000Y+33364500D01*
X-9017000Y+33337500D01*
X-9017000Y+30035500D01*
X-8953500Y+29972000D01*
X-7792000Y+29972000D01*
X-7622000Y+30142000D01*
X-8736000Y+35164000D02*
X-8941500Y+35369500D01*
X-9080500Y+35369500D01*
X-9146000Y+35304000D01*
X-9146000Y+30142000D01*
X-8990000Y+35164000D02*
X-8863000Y+35037000D01*
X-8863000Y+32096500D01*
X-8892000Y+32067500D01*
X-8892000Y+30142000D01*
X-9525000Y+28130500D02*
X-9461500Y+28130500D01*
X-9450000Y+28142000D01*
X-9140000Y+28142000D01*
X-9588500Y+31750000D02*
X-9588500Y+28194000D01*
X-9525000Y+28130500D01*
X-9588500Y+28067000D01*
X-9588500Y+25340500D01*
X-8780000Y+24532000D01*
X-11632000Y+28142000D02*
X-11493500Y+28280500D01*
X-11493500Y+29527500D01*
X-11430000Y+29591000D01*
X-11097000Y+29591000D01*
X-10876000Y+29370000D01*
X-10238000Y+35164000D02*
X-11638000Y+33764000D01*
X-11638000Y+30132000D01*
X-12400000Y+29370000D02*
X-12400000Y+26433500D01*
X-12001500Y+26035000D01*
X-14097000Y+26035000D02*
X-14114000Y+26018000D01*
X-14114000Y+25880000D01*
X-9984000Y+35164000D02*
X-11384000Y+33764000D01*
X-11384000Y+30132000D01*
X-13398500Y+28321000D02*
X-13398500Y+25836850D01*
X-13462000Y+25773350D01*
X-14261350Y+25773350D01*
X-14368000Y+25880000D01*
X-10238000Y+33640000D02*
X-10443500Y+33845500D01*
X-11049000Y+33845500D01*
X-11130000Y+33764500D01*
X-11130000Y+30132000D01*
X-11378000Y+28142000D02*
X-11378000Y+28898500D01*
X-11130000Y+29146500D01*
X-11130000Y+29370000D01*
X-10746000Y+33640000D02*
X-10746000Y+30262000D01*
X-10876000Y+30132000D01*
X-11000000Y+33640000D02*
X-11000000Y+29972000D01*
X-10936500Y+29908500D01*
X-10845500Y+29908500D01*
X-10622000Y+30132000D01*
X-10746000Y+35164000D02*
X-10951500Y+35369500D01*
X-12065000Y+35369500D01*
X-12146000Y+35288500D01*
X-12146000Y+30132000D01*
X-11000000Y+35164000D02*
X-11892000Y+34272000D01*
X-11892000Y+30132000D01*
X-12700000Y+27241500D02*
X-12700000Y+30354000D01*
X-12494000Y+30560000D01*
X-13970000Y+26987500D02*
X-13970000Y+25990000D01*
X-13860000Y+25880000D01*
X-12700000Y+27241500D02*
X-12700000Y+26987500D01*
X-14224000Y+28067000D02*
X-14224000Y+28575000D01*
X-13876000Y+28923000D01*
X-13876000Y+29380000D01*
X-14224000Y+27432000D02*
X-14287500Y+27495500D01*
X-15014500Y+27495500D01*
X-15130000Y+27380000D01*
X-14114000Y+26642000D02*
X-14224000Y+26752000D01*
X-14224000Y+27432000D01*
X-14224000Y+28067000D02*
X-14287500Y+28003500D01*
X-14483500Y+28003500D01*
X-14622000Y+28142000D01*
X-12255500Y+26733500D02*
X-12255500Y+26479500D01*
X-11886000Y+26110000D01*
X-11886000Y+25880000D01*
X-14224000Y+28067000D02*
X-14224000Y+27432000D01*
X-14618000Y+35184000D02*
X-14732000Y+35070000D01*
X-14732000Y+30574000D01*
X-14638000Y+30480000D01*
X-14638000Y+30142000D01*
X-13860000Y+28142000D02*
X-13716000Y+27998000D01*
X-13716000Y+26786000D01*
X-13860000Y+26642000D01*
X-14364000Y+35184000D02*
X-14003000Y+34823000D01*
X-14003000Y+30099000D01*
X-14066500Y+30035500D01*
X-14277500Y+30035500D01*
X-14384000Y+30142000D01*
X-15146000Y+29380000D02*
X-15146000Y+28511500D01*
X-15621000Y+28036500D01*
X-15621000Y+26289000D01*
X-17907000Y+26035000D02*
X-17886000Y+26014000D01*
X-17886000Y+25880000D01*
X-14618000Y+33660000D02*
X-14618000Y+31285500D01*
X-14130000Y+30797500D01*
X-14130000Y+30142000D01*
X-12954000Y+27749500D02*
X-12954000Y+25943500D01*
X-12890500Y+25880000D01*
X-12140000Y+25880000D01*
X-14368000Y+28142000D02*
X-14368000Y+28892500D01*
X-14130000Y+29130500D01*
X-14130000Y+29380000D01*
X-13906500Y+33528000D02*
X-13876000Y+33497500D01*
X-13876000Y+30142000D01*
X-15380000Y+33660000D02*
X-15557500Y+33482500D01*
X-15557500Y+30035500D01*
X-15494000Y+29972000D01*
X-13792000Y+29972000D01*
X-13622000Y+30142000D01*
X-15126000Y+35184000D02*
X-15240000Y+35070000D01*
X-15240000Y+30383500D01*
X-15146000Y+30289500D01*
X-15146000Y+30142000D01*
X-15380000Y+35184000D02*
X-15194500Y+35369500D01*
X-15049500Y+35369500D01*
X-14986000Y+35306000D01*
X-14986000Y+30447000D01*
X-14892000Y+30353000D01*
X-14892000Y+30142000D01*
X-15130000Y+28142000D02*
X-15303500Y+27968500D01*
X-15303500Y+24605500D01*
X-15240000Y+24542000D01*
X-13490000Y+24542000D01*
X-15130000Y+28142000D02*
X-15011000Y+28261000D01*
X-15011000Y+29756500D01*
X-14922500Y+29845000D01*
X-13573500Y+29845000D01*
X-13510000Y+29908500D01*
X-13510000Y+30560000D01*
X-13510000Y+31030000D02*
X-13510000Y+30560000D01*
X-17632000Y+27380000D02*
X-17526000Y+27274000D01*
X-17526000Y+26416000D01*
X-17124000Y+26014000D01*
X-17124000Y+25880000D01*
X-17124000Y+24258000D01*
X-17448000Y+23934000D01*
X-17632000Y+28142000D02*
X-17526000Y+28248000D01*
X-17526000Y+29527500D01*
X-17462500Y+29591000D01*
X-17087000Y+29591000D01*
X-16876000Y+29380000D01*
X-18140000Y+27380000D02*
X-17632000Y+27888000D01*
X-17632000Y+28142000D01*
X-16618000Y+35174000D02*
X-17638000Y+34154000D01*
X-17638000Y+30142000D01*
X-18288000Y+27749500D02*
X-18288000Y+28257500D01*
X-18288000Y+27749500D02*
X-18288000Y+26028000D01*
X-18140000Y+25880000D01*
X-18288000Y+28257500D02*
X-18288000Y+29268000D01*
X-18400000Y+29380000D01*
X-16364000Y+35174000D02*
X-17526000Y+34012000D01*
X-17526000Y+30284000D01*
X-17384000Y+30142000D01*
X-16618000Y+33650000D02*
X-16618000Y+30753000D01*
X-16764000Y+30607000D01*
X-16764000Y+30099000D01*
X-16827500Y+30035500D01*
X-17023500Y+30035500D01*
X-17130000Y+30142000D01*
X-17378000Y+28142000D02*
X-17378000Y+29132000D01*
X-17130000Y+29380000D01*
X-17126000Y+33650000D02*
X-17126000Y+30857000D01*
X-16876000Y+30607000D01*
X-16876000Y+30142000D01*
X-17380000Y+33650000D02*
X-17380000Y+30651500D01*
X-17272000Y+30543500D01*
X-17272000Y+29972000D01*
X-17208500Y+29908500D01*
X-16700500Y+29908500D01*
X-16622000Y+29987000D01*
X-16622000Y+30142000D01*
X-17126000Y+35174000D02*
X-17321500Y+35369500D01*
X-18034000Y+35369500D01*
X-18146000Y+35257500D01*
X-18146000Y+30142000D01*
X-17380000Y+35174000D02*
X-17780000Y+35174000D01*
X-17892000Y+35062000D01*
X-17892000Y+30142000D01*
X-17378000Y+25880000D02*
X-17378000Y+25336500D01*
X-17335500Y+25294000D01*
X-17335500Y+24300500D01*
X-17448000Y+24188000D01*
X-14478000Y+26035000D02*
X-14478000Y+25717500D01*
X-7000000Y+31150000D02*
X-7394282Y+30755718D01*
X-7394282Y+29880218D01*
X-7493000Y+29781500D01*
X-8953500Y+29781500D01*
X-9017000Y+29718000D01*
X-9017000Y+28003500D01*
X-9363074Y+27657426D01*
X-9363074Y+26127074D01*
X-9334500Y+26098500D01*
X-15557500Y+25717500D02*
X-15527140Y+25687140D01*
X-15527140Y+24414360D01*
X-15621000Y+24320500D01*
X-16493500Y+24320500D01*
X-16647000Y+24167000D01*
X-14478000Y+26035000D02*
X-14368000Y+26145000D01*
X-14368000Y+26642000D01*
X-15811500Y+30797500D02*
X-15811500Y+28765500D01*
X-16764000Y+27813000D01*
X-16764000Y+25986000D01*
X-16870000Y+25880000D01*
X-12509500Y+30797500D02*
X-12494000Y+30813000D01*
X-12494000Y+31030000D01*
X-16647000Y+23405000D02*
X-16546500Y+23304500D01*
X-889000Y+23304500D01*
X-825500Y+23368000D01*
X-825500Y+26289000D01*
X-63500Y+27051000D01*
X-63500Y+34988500D01*
X-127000Y+35052000D01*
X-470000Y+35052000D01*
X-470000Y+34840000D01*
X-16383000Y+35369500D02*
X-16129000Y+35115500D01*
X-16129000Y+34393000D01*
X-16872000Y+33650000D01*
X-16383000Y+35369500D02*
X-16676500Y+35369500D01*
X-16872000Y+35174000D01*
X-16383000Y+35369500D02*
X-16383000Y+35560000D01*
X-16384000Y+35561000D01*
X-16384000Y+35940000D01*
X-14872000Y+35184000D02*
X-14872000Y+35466000D01*
X-14394000Y+35944000D01*
X-14872000Y+35184000D02*
X-14872000Y+33660000D01*
X-10492000Y+35164000D02*
X-10492000Y+35432000D01*
X-9984000Y+35940000D01*
X-8482000Y+35164000D02*
X-8482000Y+35446000D01*
X-7984000Y+35944000D01*
X-8482000Y+35164000D02*
X-8482000Y+33640000D01*
X-3810000Y+35433000D02*
X-3701000Y+35324000D01*
X-3701000Y+34417000D01*
X-4082000Y+34036000D01*
X-4082000Y+33650000D01*
X-3810000Y+35433000D02*
X-3810000Y+35724000D01*
X-3594000Y+35940000D01*
X-3810000Y+35433000D02*
X-4018500Y+35433000D01*
X-4082000Y+35369500D01*
X-4082000Y+35174000D01*
X-2082000Y+35164000D02*
X-2082000Y+33640000D01*
X-5510000Y+25070000D02*
X-5510000Y+25550000D01*
X-17632000Y+25880000D02*
X-17632000Y+25274000D01*
X-18210000Y+24696000D01*
X-12319000Y+32512000D02*
X-12319000Y+31750000D01*
X-12382500Y+31686500D01*
X-13017500Y+31686500D01*
X-13081000Y+31623000D01*
X-13081000Y+24793500D01*
X-13144500Y+24730000D01*
X-14990000Y+24730000D01*
X-17018000Y+28142000D02*
X-17124000Y+28142000D01*
X-1134000Y+28152000D02*
X-612000Y+28674000D01*
X-612000Y+29380000D01*
X-3873500Y+27940000D02*
X-3746500Y+28067000D01*
X-3746500Y+29255500D01*
X-3622000Y+29380000D01*
X-3870000Y+27380000D02*
X-3870000Y+27936500D01*
X-3873500Y+27940000D01*
X-8124000Y+28142000D02*
X-8124000Y+28384500D01*
X-7622000Y+28886500D01*
X-7622000Y+29380000D01*
X-17018000Y+28130500D02*
X-17018000Y+28142000D01*
X-11124000Y+28142000D02*
X-10985500Y+28280500D01*
X-10985500Y+28765500D01*
X-10622000Y+29129000D01*
X-10622000Y+29370000D01*
X-13970000Y+28257500D02*
X-13622000Y+28605500D01*
X-13622000Y+29380000D01*
X-7870000Y+27380000D02*
X-7870000Y+27622500D01*
X-8124000Y+27876500D01*
X-8124000Y+28142000D01*
X-16870000Y+27380000D02*
X-17018000Y+27528000D01*
X-17018000Y+28130500D01*
X-3873500Y+27940000D02*
X-3922000Y+27940000D01*
X-4124000Y+28142000D01*
X-1887000Y+24355000D02*
X-2159000Y+24627000D01*
X-2159000Y+24828500D01*
X-10870000Y+27380000D02*
X-11124000Y+27634000D01*
X-11124000Y+28142000D01*
X-13860000Y+27380000D02*
X-13970000Y+27490000D01*
X-13970000Y+27998000D01*
X-14114000Y+28142000D01*
X-17448000Y+24442000D02*
X-17912499Y+24442001D01*
X-18034000Y+24320500D01*
X-7000000Y+31580000D02*
X-6794500Y+31374500D01*
X-6794500Y+31150000D01*
X-6990000Y+30740000D02*
X-6794500Y+30935500D01*
X-6794500Y+31150000D01*
X-1642000Y+27390000D02*
X-1473000Y+27559000D01*
X-1143000Y+27559000D01*
X-16616000Y+25880000D02*
X-16510000Y+25774000D01*
X-16510000Y+24558000D01*
X-16647000Y+24421000D01*
X-18210000Y+23680000D02*
X-18092000Y+23680000D01*
X-17970500Y+23558500D01*
X-17970500Y+23431500D01*
X-880000Y+27390000D02*
X-1049000Y+27559000D01*
X-1143000Y+27559000D01*
X-18210000Y+24442000D02*
X-18088500Y+24320500D01*
X-18034000Y+24320500D01*
X-226000Y+33810000D02*
X-226000Y+34036000D01*
X-216000Y+34046000D01*
X-216000Y+34840000D01*
X-1134000Y+28152000D02*
X-1134000Y+27940000D01*
X-1143000Y+27931000D01*
X-1143000Y+27559000D01*
X-17448000Y+23426000D02*
X-17653000Y+23426000D01*
X-17658500Y+23431500D01*
X-17970500Y+23431500D01*
X-14114000Y+28142000D02*
X-13998500Y+28257500D01*
X-13970000Y+28257500D01*
X-13606000Y+27380000D02*
X-13462000Y+27236000D01*
X-13462000Y+26024000D01*
X-13606000Y+25880000D01*
X-7870000Y+27380000D02*
X-7747000Y+27257000D01*
X-7747000Y+26011000D01*
X-7616000Y+25880000D01*
X-6794500Y+31150000D02*
X-5984000Y+31150000D01*
X-7000000Y+31580000D02*
X-7000000Y+32000000D01*
X-1887000Y+24355000D02*
X-1887000Y+24101000D01*
X-17448000Y+23426000D02*
X-17448000Y+23680000D01*
X-17448000Y+24442001D02*
X-17448000Y+24442000D01*
X-17448000Y+24696000D01*
X-17448000Y+24696001D01*
X-18210000Y+23934000D02*
X-18210000Y+23680000D01*
X-10870000Y+27380000D02*
X-10616000Y+27380000D01*
X-10477500Y+27241500D02*
X-10477500Y+27114500D01*
X-10616000Y+27380000D02*
X-10477500Y+27241500D01*
X-10477500Y+27114500D02*
X-10477500Y+26018500D01*
X-10616000Y+25880000D01*
X-16616000Y+27380000D02*
X-16510000Y+27274000D01*
X-16510000Y+25986000D01*
X-16616000Y+25880000D01*
X-12400000Y+30132000D02*
X-12255500Y+29987500D01*
X-12255500Y+27114500D01*
X-12140000Y+26999000D01*
X-12140000Y+26642000D01*
X-4254500Y+27622500D02*
X-4254500Y+27510500D01*
X-4124000Y+27380000D01*
X-1312000Y+26430000D02*
X-1312000Y+26800000D01*
X-1642000Y+26800000D01*
X-1642000Y+27390000D02*
X-1642000Y+26800000D01*
X-1642000Y+25362000D01*
X-1887000Y+25117000D01*
X-5524500Y+27876500D02*
X-5950000Y+27451000D01*
X-5950000Y+25773350D01*
X-8017350Y+25773350D01*
X-8124000Y+25880000D01*
X-5270500Y+27300000D02*
X-5800000Y+26770500D01*
X-5800000Y+25650000D01*
X-5270500Y+28448000D02*
X-5270500Y+27300000D01*
X-5800000Y+25650000D02*
X-8148000Y+25650000D01*
X-8378000Y+25880000D01*
X-3870000Y+27380000D02*
X-3870000Y+26800000D01*
X-3870000Y+26650000D01*
X-3870000Y+26600000D01*
X-3870000Y+26530000D01*
X-3780000Y+26440000D01*
X-5510000Y+26000000D02*
X-5310000Y+25800000D01*
X-4744000Y+25800000D01*
X-4494000Y+25550000D01*
X-2283000Y+24850000D02*
X-2159000Y+24850000D01*
X-1887000Y+25117000D02*
X-2061000Y+25117000D01*
X-2159000Y+25019000D01*
X-2159000Y+24850000D01*
X-2159000Y+24828500D01*
X-3096300Y+24853000D02*
X-2286000Y+24853000D01*
X-2283000Y+24850000D01*
X-1093000Y+24609000D02*
X-900000Y+24802000D01*
X-900000Y+25686000D01*
X-1093000Y+25879000D01*
X-4494000Y+26000000D02*
X-4200000Y+26000000D01*
X-4100000Y+26100000D01*
X-4050000Y+26150000D01*
X-3450000Y+26150000D01*
X-3272000Y+26328000D01*
X-3272000Y+26440000D01*
X-3100000Y+24950000D02*
X-2476500Y+24950000D01*
X-3700000Y+24750000D02*
X-3500000Y+24950000D01*
X-3100000Y+24950000D01*
X-16647000Y+23659000D02*
X-16546500Y+23558500D01*
X-6286500Y+23558500D01*
X-5095000Y+24750000D01*
X-3700000Y+24750000D01*
X-3883700Y+24091000D02*
X-3550000Y+24091000D01*
X-3550000Y+24700000D01*
X-3397000Y+24853000D01*
X-3096300Y+24853000D01*
X-3400000Y+25250000D02*
X-3400000Y+26100000D01*
X-3450000Y+26150000D01*
X-1093000Y+24101000D02*
X-1292000Y+24300000D01*
X-1292000Y+24664000D01*
X-1093000Y+24863000D01*
X-2349500Y+27200000D02*
X-2104000Y+26954500D01*
X-2104000Y+26096000D01*
X-1887000Y+25879000D02*
X-2104000Y+26096000D01*
X-2349500Y+27200000D02*
X-2349500Y+27952500D01*
X-2150000Y+28152000D01*
X-2476500Y+27200000D02*
X-2200000Y+26923500D01*
X-2200000Y+25226500D01*
X-2476500Y+24950000D01*
X-2476500Y+27200000D02*
X-2476500Y+29083000D01*
X-2413000Y+29146500D01*
X-1333500Y+29146500D01*
X-1270000Y+29210000D01*
X-1270000Y+29464000D01*
X-1206500Y+29527500D01*
X-571500Y+29527500D01*
X-457200Y+29641800D01*
X-457200Y+33568700D01*
X-480000Y+33591500D01*
X-480000Y+33810000D01*
X-18400000Y+30142000D02*
X-18400000Y+31000000D01*
X-18400000Y+35250000D01*
X-18050000Y+35600000D01*
X-17400000Y+35600000D01*
X-17400000Y+35940000D01*
X-7510000Y+24532000D02*
X-5750000Y+24532000D01*
X-10049500Y+25700000D02*
X-10049500Y+27050000D01*
X-7550000Y+29600000D02*
X-7476000Y+29526000D01*
X-7622000Y+29380000D02*
X-7476000Y+29526000D01*
X-18140000Y+26642000D02*
X-17899000Y+26401000D01*
X-17526000Y+26028000D01*
X-17526000Y+25146000D01*
X-17448000Y+25068000D01*
X-17448000Y+24950000D01*
X-17899000Y+26401000D02*
X-18050000Y+26250000D01*
X-18400000Y+25900000D02*
X-18650000Y+26150000D01*
X-18650000Y+30000000D01*
X-18508000Y+30142000D01*
X-18400000Y+30142000D01*
X-7476000Y+29526000D02*
X-6990000Y+30012000D01*
X-6990000Y+30400000D01*
X-6990000Y+30740000D01*
X-612000Y+29380000D02*
X-310000Y+29380000D01*
X-226000Y+29464000D01*
X-226000Y+30400000D01*
X-226000Y+33810000D01*
X-18415000Y+24237000D02*
X-18415000Y+25400000D01*
X-18665000Y+25650000D01*
X-18665000Y+26000000D01*
X-18800000Y+26135000D01*
X-18800000Y+28500000D01*
X-17100000Y+28500000D02*
X-16880000Y+28280000D01*
X-17018000Y+28142000D02*
X-16880000Y+28280000D01*
X-16622000Y+28538000D01*
X-16622000Y+29380000D01*
X-18210000Y+24442000D02*
X-18415000Y+24237000D01*
X-18415000Y+23997500D01*
X-18351500Y+23934000D01*
X-18210000Y+23934000D01*
X-18034000Y+23172000D02*
X-17850000Y+22988000D01*
X-600000Y+22988000D01*
X-600000Y+24490000D01*
X-20000Y+24490000D01*
X-17970500Y+23431500D02*
X-17970500Y+23235500D01*
X-18034000Y+23172000D01*
X-18210000Y+23172000D01*
D11*
X-11493500Y+24701500D03*
X-8763000Y+27686000D03*
X-5143500Y+28321000D03*
X-12827000Y+26606500D03*
X-12001500Y+31242000D03*
X-14478000Y+27241500D03*
X-8509000Y+26225500D03*
X-14986000Y+26225500D03*
X-9588500Y+31750000D03*
X-12001500Y+26035000D03*
X-14097000Y+26035000D03*
X-13398500Y+28321000D03*
X-13970000Y+26987500D03*
X-12700000Y+26987500D03*
X-12700000Y+27241500D03*
X-12255500Y+26733500D03*
X-15621000Y+26289000D03*
X-17907000Y+26035000D03*
X-12954000Y+27749500D03*
X-13906500Y+33528000D03*
X-18288000Y+28257500D03*
X-9334500Y+26098500D03*
X-14478000Y+25717500D03*
X-15557500Y+25717500D03*
X-15811500Y+30797500D03*
X-12509500Y+30797500D03*
X-12319000Y+32512000D03*
X-4254500Y+27622500D03*
X-5270500Y+28448000D03*
X-5524500Y+27876500D03*
X-3400000Y+25250000D03*
X-5750000Y+24532000D03*
X-10049500Y+25700000D03*
X-10049500Y+27050000D03*
X-18050000Y+26250000D03*
X-18400000Y+25900000D03*
X-6990000Y+30400000D03*
X-226000Y+30400000D03*
X-18800000Y+28500000D03*
X-17100000Y+28500000D03*
D12*
X+74000000Y+97000000D03*
D13*
X+105150000Y+98840000D03*
D14*
X-2590000Y+33640000D03*
X-2336000Y+33640000D03*
X-2082000Y+33640000D03*
X-1828000Y+33640000D03*
X-1574000Y+33640000D03*
X-1574000Y+35164000D03*
X-1828000Y+35164000D03*
X-2082000Y+35164000D03*
X-2336000Y+35164000D03*
X-2590000Y+35164000D03*
X-4590000Y+33650000D03*
X-4336000Y+33650000D03*
X-4082000Y+33650000D03*
X-3828000Y+33650000D03*
X-3574000Y+33650000D03*
X-3574000Y+35174000D03*
X-3828000Y+35174000D03*
X-4082000Y+35174000D03*
X-4336000Y+35174000D03*
X-4590000Y+35174000D03*
X-8990000Y+33640000D03*
X-8736000Y+33640000D03*
X-8482000Y+33640000D03*
X-8228000Y+33640000D03*
X-7974000Y+33640000D03*
X-7974000Y+35164000D03*
X-8228000Y+35164000D03*
X-8482000Y+35164000D03*
X-8736000Y+35164000D03*
X-8990000Y+35164000D03*
X-11000000Y+33640000D03*
X-10746000Y+33640000D03*
X-10492000Y+33640000D03*
X-10238000Y+33640000D03*
X-9984000Y+33640000D03*
X-9984000Y+35164000D03*
X-10238000Y+35164000D03*
X-10492000Y+35164000D03*
X-10746000Y+35164000D03*
X-11000000Y+35164000D03*
X-15380000Y+33660000D03*
X-15126000Y+33660000D03*
X-14872000Y+33660000D03*
X-14618000Y+33660000D03*
X-14364000Y+33660000D03*
X-14364000Y+35184000D03*
X-14618000Y+35184000D03*
X-14872000Y+35184000D03*
X-15126000Y+35184000D03*
X-15380000Y+35184000D03*
X-17380000Y+33650000D03*
X-17126000Y+33650000D03*
X-16872000Y+33650000D03*
X-16618000Y+33650000D03*
X-16364000Y+33650000D03*
X-16364000Y+35174000D03*
X-16618000Y+35174000D03*
X-16872000Y+35174000D03*
X-17126000Y+35174000D03*
X-17380000Y+35174000D03*
D15*
X-2150000Y+27390000D03*
D16*
X-1896000Y+27390000D03*
X-1642000Y+27390000D03*
X-1388000Y+27390000D03*
X-1134000Y+27390000D03*
X-880000Y+27390000D03*
X-626000Y+27390000D03*
X-626000Y+28152000D03*
X-880000Y+28152000D03*
X-1134000Y+28152000D03*
X-1388000Y+28152000D03*
X-1642000Y+28152000D03*
X-1896000Y+28152000D03*
X-2150000Y+28152000D03*
D15*
X-2390000Y+29380000D03*
D16*
X-2136000Y+29380000D03*
X-1882000Y+29380000D03*
X-1628000Y+29380000D03*
X-1374000Y+29380000D03*
X-1120000Y+29380000D03*
X-866000Y+29380000D03*
X-612000Y+29380000D03*
X-612000Y+30142000D03*
X-866000Y+30142000D03*
X-1120000Y+30142000D03*
X-1374000Y+30142000D03*
X-1628000Y+30142000D03*
X-1882000Y+30142000D03*
X-2136000Y+30142000D03*
X-2390000Y+30142000D03*
D15*
X-5140000Y+27380000D03*
D16*
X-4886000Y+27380000D03*
X-4632000Y+27380000D03*
X-4378000Y+27380000D03*
X-4124000Y+27380000D03*
X-3870000Y+27380000D03*
X-3616000Y+27380000D03*
X-3616000Y+28142000D03*
X-3870000Y+28142000D03*
X-4124000Y+28142000D03*
X-4378000Y+28142000D03*
X-4632000Y+28142000D03*
X-4886000Y+28142000D03*
X-5140000Y+28142000D03*
D15*
X-5400000Y+29380000D03*
D16*
X-5146000Y+29380000D03*
X-4892000Y+29380000D03*
X-4638000Y+29380000D03*
X-4384000Y+29380000D03*
X-4130000Y+29380000D03*
X-3876000Y+29380000D03*
X-3622000Y+29380000D03*
X-3622000Y+30142000D03*
X-3876000Y+30142000D03*
X-4130000Y+30142000D03*
X-4384000Y+30142000D03*
X-4638000Y+30142000D03*
X-4892000Y+30142000D03*
X-5146000Y+30142000D03*
X-5400000Y+30142000D03*
D15*
X-9140000Y+27380000D03*
D16*
X-8886000Y+27380000D03*
X-8632000Y+27380000D03*
X-8378000Y+27380000D03*
X-8124000Y+27380000D03*
X-7870000Y+27380000D03*
X-7616000Y+27380000D03*
X-7616000Y+28142000D03*
X-7870000Y+28142000D03*
X-8124000Y+28142000D03*
X-8378000Y+28142000D03*
X-8632000Y+28142000D03*
X-8886000Y+28142000D03*
X-9140000Y+28142000D03*
D15*
X-9400000Y+29380000D03*
D16*
X-9146000Y+29380000D03*
X-8892000Y+29380000D03*
X-8638000Y+29380000D03*
X-8384000Y+29380000D03*
X-8130000Y+29380000D03*
X-7876000Y+29380000D03*
X-7622000Y+29380000D03*
X-7622000Y+30142000D03*
X-7876000Y+30142000D03*
X-8130000Y+30142000D03*
X-8384000Y+30142000D03*
X-8638000Y+30142000D03*
X-8892000Y+30142000D03*
X-9146000Y+30142000D03*
X-9400000Y+30142000D03*
D15*
X-12140000Y+27380000D03*
D16*
X-11886000Y+27380000D03*
X-11632000Y+27380000D03*
X-11378000Y+27380000D03*
X-11124000Y+27380000D03*
X-10870000Y+27380000D03*
X-10616000Y+27380000D03*
X-10616000Y+28142000D03*
X-10870000Y+28142000D03*
X-11124000Y+28142000D03*
X-11378000Y+28142000D03*
X-11632000Y+28142000D03*
X-11886000Y+28142000D03*
X-12140000Y+28142000D03*
D15*
X-12400000Y+29370000D03*
D16*
X-12146000Y+29370000D03*
X-11892000Y+29370000D03*
X-11638000Y+29370000D03*
X-11384000Y+29370000D03*
X-11130000Y+29370000D03*
X-10876000Y+29370000D03*
X-10622000Y+29370000D03*
X-10622000Y+30132000D03*
X-10876000Y+30132000D03*
X-11130000Y+30132000D03*
X-11384000Y+30132000D03*
X-11638000Y+30132000D03*
X-11892000Y+30132000D03*
X-12146000Y+30132000D03*
X-12400000Y+30132000D03*
D15*
X-15130000Y+27380000D03*
D16*
X-14876000Y+27380000D03*
X-14622000Y+27380000D03*
X-14368000Y+27380000D03*
X-14114000Y+27380000D03*
X-13860000Y+27380000D03*
X-13606000Y+27380000D03*
X-13606000Y+28142000D03*
X-13860000Y+28142000D03*
X-14114000Y+28142000D03*
X-14368000Y+28142000D03*
X-14622000Y+28142000D03*
X-14876000Y+28142000D03*
X-15130000Y+28142000D03*
D15*
X-15400000Y+29380000D03*
D16*
X-15146000Y+29380000D03*
X-14892000Y+29380000D03*
X-14638000Y+29380000D03*
X-14384000Y+29380000D03*
X-14130000Y+29380000D03*
X-13876000Y+29380000D03*
X-13622000Y+29380000D03*
X-13622000Y+30142000D03*
X-13876000Y+30142000D03*
X-14130000Y+30142000D03*
X-14384000Y+30142000D03*
X-14638000Y+30142000D03*
X-14892000Y+30142000D03*
X-15146000Y+30142000D03*
X-15400000Y+30142000D03*
D15*
X-18140000Y+27380000D03*
D16*
X-17886000Y+27380000D03*
X-17632000Y+27380000D03*
X-17378000Y+27380000D03*
X-17124000Y+27380000D03*
X-16870000Y+27380000D03*
X-16616000Y+27380000D03*
X-16616000Y+28142000D03*
X-16870000Y+28142000D03*
X-17124000Y+28142000D03*
X-17378000Y+28142000D03*
X-17632000Y+28142000D03*
X-17886000Y+28142000D03*
X-18140000Y+28142000D03*
D15*
X-18400000Y+29380000D03*
D16*
X-18146000Y+29380000D03*
X-17892000Y+29380000D03*
X-17638000Y+29380000D03*
X-17384000Y+29380000D03*
X-17130000Y+29380000D03*
X-16876000Y+29380000D03*
X-16622000Y+29380000D03*
X-16622000Y+30142000D03*
X-16876000Y+30142000D03*
X-17130000Y+30142000D03*
X-17384000Y+30142000D03*
X-17638000Y+30142000D03*
X-17892000Y+30142000D03*
X-18146000Y+30142000D03*
X-18400000Y+30142000D03*
D15*
X-18140000Y+25880000D03*
D16*
X-17886000Y+25880000D03*
X-17632000Y+25880000D03*
X-17378000Y+25880000D03*
X-17124000Y+25880000D03*
X-16870000Y+25880000D03*
X-16616000Y+25880000D03*
X-16616000Y+26642000D03*
X-16870000Y+26642000D03*
X-17124000Y+26642000D03*
X-17378000Y+26642000D03*
X-17632000Y+26642000D03*
X-17886000Y+26642000D03*
X-18140000Y+26642000D03*
D15*
X-9140000Y+25880000D03*
D16*
X-8886000Y+25880000D03*
X-8632000Y+25880000D03*
X-8378000Y+25880000D03*
X-8124000Y+25880000D03*
X-7870000Y+25880000D03*
X-7616000Y+25880000D03*
X-7616000Y+26642000D03*
X-7870000Y+26642000D03*
X-8124000Y+26642000D03*
X-8378000Y+26642000D03*
X-8632000Y+26642000D03*
X-8886000Y+26642000D03*
X-9140000Y+26642000D03*
D15*
X-15130000Y+25880000D03*
D16*
X-14876000Y+25880000D03*
X-14622000Y+25880000D03*
X-14368000Y+25880000D03*
X-14114000Y+25880000D03*
X-13860000Y+25880000D03*
X-13606000Y+25880000D03*
X-13606000Y+26642000D03*
X-13860000Y+26642000D03*
X-14114000Y+26642000D03*
X-14368000Y+26642000D03*
X-14622000Y+26642000D03*
X-14876000Y+26642000D03*
X-15130000Y+26642000D03*
D15*
X-12140000Y+25880000D03*
D16*
X-11886000Y+25880000D03*
X-11632000Y+25880000D03*
X-11378000Y+25880000D03*
X-11124000Y+25880000D03*
X-10870000Y+25880000D03*
X-10616000Y+25880000D03*
X-10616000Y+26642000D03*
X-10870000Y+26642000D03*
X-11124000Y+26642000D03*
X-11378000Y+26642000D03*
X-11632000Y+26642000D03*
X-11886000Y+26642000D03*
X-12140000Y+26642000D03*
D17*
X-3883700Y+25869000D03*
D18*
X-3883700Y+25615000D03*
X-3883700Y+25361000D03*
X-3883700Y+25107000D03*
X-3883700Y+24853000D03*
X-3883700Y+24599000D03*
X-3883700Y+24345000D03*
X-3883700Y+24091000D03*
X-3096300Y+24091000D03*
X-3096300Y+24345000D03*
X-3096300Y+24599000D03*
X-3096300Y+24853000D03*
X-3096300Y+25107000D03*
X-3096300Y+25361000D03*
X-3096300Y+25615000D03*
X-3096300Y+25869000D03*
D19*
X-1887000Y+25879000D03*
D70*
X-1887000Y+25625000D03*
X-1887000Y+25371000D03*
X-1887000Y+25117000D03*
X-1887000Y+24863000D03*
X-1887000Y+24609000D03*
X-1887000Y+24355000D03*
X-1887000Y+24101000D03*
X-1093000Y+24101000D03*
X-1093000Y+24355000D03*
X-1093000Y+24609000D03*
X-1093000Y+24863000D03*
X-1093000Y+25117000D03*
X-1093000Y+25371000D03*
X-1093000Y+25625000D03*
X-1093000Y+25879000D03*
D71*
X-8780000Y+23770000D03*
X-7510000Y+23770000D03*
X-7510000Y+24532000D03*
X-8780000Y+24532000D03*
X-11150000Y+23770000D03*
X-9880000Y+23770000D03*
X-9880000Y+24532000D03*
X-11150000Y+24532000D03*
X-13490000Y+23780000D03*
X-12220000Y+23780000D03*
X-12220000Y+24542000D03*
X-13490000Y+24542000D03*
D15*
X-18210000Y+24950000D03*
D16*
X-18210000Y+24696000D03*
X-18210000Y+24442000D03*
X-18210000Y+24188000D03*
X-18210000Y+23934000D03*
X-18210000Y+23680000D03*
X-18210000Y+23426000D03*
X-18210000Y+23172000D03*
X-17448000Y+23172000D03*
X-17448000Y+23426000D03*
X-17448000Y+23680000D03*
X-17448000Y+23934000D03*
X-17448000Y+24188000D03*
X-17448000Y+24442000D03*
X-17448000Y+24696000D03*
X-17448000Y+24950000D03*
D19*
X-16647000Y+24929000D03*
D70*
X-16647000Y+24675000D03*
X-16647000Y+24421000D03*
X-16647000Y+24167000D03*
X-16647000Y+23913000D03*
X-16647000Y+23659000D03*
X-16647000Y+23405000D03*
X-16647000Y+23151000D03*
X-15853000Y+23151000D03*
X-15853000Y+23405000D03*
X-15853000Y+23659000D03*
X-15853000Y+23913000D03*
X-15853000Y+24167000D03*
X-15853000Y+24421000D03*
X-15853000Y+24675000D03*
X-15853000Y+24929000D03*
D20*
X-470000Y+34840000D03*
X-216000Y+34840000D03*
X-480000Y+33810000D03*
X-226000Y+33810000D03*
D71*
X-810000Y+30950000D03*
X+460000Y+30950000D03*
X+460000Y+31712000D03*
X-810000Y+31712000D03*
D21*
X-5510000Y+26000000D03*
X-4494000Y+26000000D03*
X-5510000Y+25550000D03*
X-4494000Y+25550000D03*
X-5510000Y+25070000D03*
X-4494000Y+25070000D03*
X-3780000Y+26440000D03*
X-3272000Y+26440000D03*
X-1820000Y+26430000D03*
X-1312000Y+26430000D03*
X-2600000Y+35940000D03*
X-1584000Y+35940000D03*
X-17400000Y+35940000D03*
X-16384000Y+35940000D03*
X-11000000Y+35940000D03*
X-9984000Y+35940000D03*
D22*
X-12494000Y+31940000D03*
X-13510000Y+31940000D03*
X-12494000Y+31490000D03*
X-13510000Y+31490000D03*
X-12494000Y+31030000D03*
X-13510000Y+31030000D03*
X-12494000Y+30560000D03*
X-13510000Y+30560000D03*
D21*
X-15410000Y+35944000D03*
X-14394000Y+35944000D03*
X-9000000Y+35944000D03*
X-7984000Y+35944000D03*
X-4610000Y+35940000D03*
X-3594000Y+35940000D03*
X-800000Y+32760000D03*
X+216000Y+32760000D03*
D23*
X-20000Y+24290000D03*
X-20000Y+24490000D03*
D21*
X-7000000Y+32000000D03*
X-5984000Y+32000000D03*
X-7000000Y+31580000D03*
X-5984000Y+31580000D03*
X-7000000Y+31150000D03*
X-5984000Y+31150000D03*
X-6990000Y+30740000D03*
X-5974000Y+30740000D03*
D24*
X-14990000Y+24730000D03*
X-14990000Y+24260000D03*
X-14990000Y+23790000D03*
D13*
X-4100000Y+53400000D03*
D25*
X-2450000Y+26450000D03*
X-2750000Y+26450000D03*
D26*
X-19350000Y+21790000D02*
X+1550000Y+21790000D01*
X+1550000Y+37360000D01*
X-19350000Y+37360000D01*
X-19350000Y+21790000D01*
M02*
