G04 PROTEUS GERBER X2 FILE*
%TF.GenerationSoftware,Labcenter,Proteus,8.11-SP0-Build30052*%
%TF.CreationDate,2021-11-27T06:41:44+00:00*%
%TF.FileFunction,Legend,Top*%
%TF.FilePolarity,Positive*%
%TF.Part,Single*%
%TF.SameCoordinates,{e397242e-da90-49e6-b63e-a6f9376aac74}*%
%FSLAX45Y45*%
%MOMM*%
G01*
%TA.AperFunction,Profile*%
%ADD26C,0.203200*%
%TA.AperFunction,Material*%
%ADD27C,0.100000*%
%ADD28C,0.203200*%
%ADD29C,0.200000*%
%ADD72C,0.508000*%
%ADD73C,0.152400*%
%TD.AperFunction*%
D26*
X-19350000Y+21790000D02*
X+1550000Y+21790000D01*
X+1550000Y+37360000D01*
X-19350000Y+37360000D01*
X-19350000Y+21790000D01*
D27*
X-2702000Y+33527000D02*
X-1462000Y+33527000D01*
X-1462000Y+35277000D01*
X-2702000Y+35277000D01*
X-2702000Y+33527000D01*
X-2602000Y+33482000D02*
X-2597000Y+33477000D01*
X-2592000Y+33482000D01*
X-2597000Y+33487000D01*
X-2602000Y+33482000D01*
D28*
X-2256625Y+35403920D02*
X-2177250Y+35403920D01*
X-2177250Y+35388680D01*
X-2256625Y+35312480D01*
X-2145500Y+35327720D02*
X-2129625Y+35312480D01*
X-2066125Y+35312480D01*
X-2050250Y+35327720D01*
X-2050250Y+35342960D01*
X-2066125Y+35358200D01*
X-2129625Y+35358200D01*
X-2145500Y+35373440D01*
X-2145500Y+35388680D01*
X-2129625Y+35403920D01*
X-2066125Y+35403920D01*
X-2050250Y+35388680D01*
X-1986750Y+35373440D02*
X-1955000Y+35403920D01*
X-1955000Y+35312480D01*
D27*
X-4702000Y+33537000D02*
X-3462000Y+33537000D01*
X-3462000Y+35287000D01*
X-4702000Y+35287000D01*
X-4702000Y+33537000D01*
X-4602000Y+33492000D02*
X-4597000Y+33487000D01*
X-4592000Y+33492000D01*
X-4597000Y+33497000D01*
X-4602000Y+33492000D01*
D28*
X-4256625Y+35413920D02*
X-4177250Y+35413920D01*
X-4177250Y+35398680D01*
X-4256625Y+35322480D01*
X-4145500Y+35337720D02*
X-4129625Y+35322480D01*
X-4066125Y+35322480D01*
X-4050250Y+35337720D01*
X-4050250Y+35352960D01*
X-4066125Y+35368200D01*
X-4129625Y+35368200D01*
X-4145500Y+35383440D01*
X-4145500Y+35398680D01*
X-4129625Y+35413920D01*
X-4066125Y+35413920D01*
X-4050250Y+35398680D01*
X-4002625Y+35398680D02*
X-3986750Y+35413920D01*
X-3939125Y+35413920D01*
X-3923250Y+35398680D01*
X-3923250Y+35383440D01*
X-3939125Y+35368200D01*
X-3986750Y+35368200D01*
X-4002625Y+35352960D01*
X-4002625Y+35322480D01*
X-3923250Y+35322480D01*
D27*
X-9102000Y+33527000D02*
X-7862000Y+33527000D01*
X-7862000Y+35277000D01*
X-9102000Y+35277000D01*
X-9102000Y+33527000D01*
X-9002000Y+33482000D02*
X-8997000Y+33477000D01*
X-8992000Y+33482000D01*
X-8997000Y+33487000D01*
X-9002000Y+33482000D01*
D28*
X-8656625Y+35403920D02*
X-8577250Y+35403920D01*
X-8577250Y+35388680D01*
X-8656625Y+35312480D01*
X-8545500Y+35312480D02*
X-8545500Y+35403920D01*
X-8497875Y+35358200D01*
X-8450250Y+35403920D01*
X-8450250Y+35312480D01*
X-8386750Y+35373440D02*
X-8355000Y+35403920D01*
X-8355000Y+35312480D01*
D27*
X-11112000Y+33527000D02*
X-9872000Y+33527000D01*
X-9872000Y+35277000D01*
X-11112000Y+35277000D01*
X-11112000Y+33527000D01*
X-11012000Y+33482000D02*
X-11007000Y+33477000D01*
X-11002000Y+33482000D01*
X-11007000Y+33487000D01*
X-11012000Y+33482000D01*
D28*
X-10666625Y+35403920D02*
X-10587250Y+35403920D01*
X-10587250Y+35388680D01*
X-10666625Y+35312480D01*
X-10555500Y+35312480D02*
X-10555500Y+35403920D01*
X-10507875Y+35358200D01*
X-10460250Y+35403920D01*
X-10460250Y+35312480D01*
X-10412625Y+35388680D02*
X-10396750Y+35403920D01*
X-10349125Y+35403920D01*
X-10333250Y+35388680D01*
X-10333250Y+35373440D01*
X-10349125Y+35358200D01*
X-10396750Y+35358200D01*
X-10412625Y+35342960D01*
X-10412625Y+35312480D01*
X-10333250Y+35312480D01*
D27*
X-15492000Y+33547000D02*
X-14252000Y+33547000D01*
X-14252000Y+35297000D01*
X-15492000Y+35297000D01*
X-15492000Y+33547000D01*
X-15392000Y+33502000D02*
X-15387000Y+33497000D01*
X-15382000Y+33502000D01*
X-15387000Y+33507000D01*
X-15392000Y+33502000D01*
D28*
X-15046625Y+35423920D02*
X-14967250Y+35423920D01*
X-14967250Y+35408680D01*
X-15046625Y+35332480D01*
X-14935500Y+35332480D02*
X-14935500Y+35423920D01*
X-14840250Y+35423920D02*
X-14840250Y+35332480D01*
X-14935500Y+35378200D02*
X-14840250Y+35378200D01*
X-14776750Y+35393440D02*
X-14745000Y+35423920D01*
X-14745000Y+35332480D01*
D27*
X-17492000Y+33537000D02*
X-16252000Y+33537000D01*
X-16252000Y+35287000D01*
X-17492000Y+35287000D01*
X-17492000Y+33537000D01*
X-17392000Y+33492000D02*
X-17387000Y+33487000D01*
X-17382000Y+33492000D01*
X-17387000Y+33497000D01*
X-17392000Y+33492000D01*
D28*
X-17046625Y+35413920D02*
X-16967250Y+35413920D01*
X-16967250Y+35398680D01*
X-17046625Y+35322480D01*
X-16935500Y+35322480D02*
X-16935500Y+35413920D01*
X-16840250Y+35413920D02*
X-16840250Y+35322480D01*
X-16935500Y+35368200D02*
X-16840250Y+35368200D01*
X-16792625Y+35398680D02*
X-16776750Y+35413920D01*
X-16729125Y+35413920D01*
X-16713250Y+35398680D01*
X-16713250Y+35383440D01*
X-16729125Y+35368200D01*
X-16776750Y+35368200D01*
X-16792625Y+35352960D01*
X-16792625Y+35322480D01*
X-16713250Y+35322480D01*
X-2277000Y+27898000D02*
X-2277000Y+28025000D01*
X-2277000Y+27517000D02*
X-2277000Y+27644000D01*
X-2150000Y+27771000D02*
X-2152436Y+27796876D01*
X-2159485Y+27820848D01*
X-2170762Y+27842438D01*
X-2185878Y+27861170D01*
X-2204446Y+27876569D01*
X-2226081Y+27888158D01*
X-2250394Y+27895460D01*
X-2277000Y+27898000D01*
X-2150000Y+27771000D02*
X-2152436Y+27744394D01*
X-2159485Y+27720081D01*
X-2170762Y+27698446D01*
X-2185878Y+27679878D01*
X-2204446Y+27664762D01*
X-2226081Y+27653485D01*
X-2250394Y+27646436D01*
X-2277000Y+27644000D01*
X-2277000Y+27517000D02*
X-499000Y+27517000D01*
X-499000Y+28025000D01*
X-2277000Y+28025000D01*
X-2332880Y+27580500D02*
X-2317640Y+27596375D01*
X-2317640Y+27659875D01*
X-2332880Y+27675750D01*
X-2348120Y+27675750D01*
X-2363360Y+27659875D01*
X-2363360Y+27596375D01*
X-2378600Y+27580500D01*
X-2393840Y+27580500D01*
X-2409080Y+27596375D01*
X-2409080Y+27659875D01*
X-2393840Y+27675750D01*
X-2378600Y+27739250D02*
X-2409080Y+27771000D01*
X-2317640Y+27771000D01*
X-2317640Y+27834500D02*
X-2409080Y+27834500D01*
X-2409080Y+27898000D01*
X-2378600Y+27929750D01*
X-2348120Y+27929750D01*
X-2317640Y+27898000D01*
X-2317640Y+27834500D01*
X-2517000Y+29507000D02*
X-2517000Y+29634000D01*
X-2390000Y+29761000D02*
X-2392436Y+29786876D01*
X-2399485Y+29810848D01*
X-2410762Y+29832438D01*
X-2425878Y+29851170D01*
X-2444446Y+29866569D01*
X-2466081Y+29878158D01*
X-2490394Y+29885460D01*
X-2517000Y+29888000D01*
X-2390000Y+29761000D02*
X-2392436Y+29734394D01*
X-2399485Y+29710081D01*
X-2410762Y+29688446D01*
X-2425878Y+29669878D01*
X-2444446Y+29654762D01*
X-2466081Y+29643485D01*
X-2490394Y+29636436D01*
X-2517000Y+29634000D01*
X-2517000Y+29888000D02*
X-2517000Y+30015000D01*
X-485000Y+29507000D02*
X-485000Y+30015000D01*
X-2517000Y+29507000D02*
X-485000Y+29507000D01*
X-485000Y+30015000D02*
X-2517000Y+30015000D01*
X-2572880Y+29570500D02*
X-2557640Y+29586375D01*
X-2557640Y+29649875D01*
X-2572880Y+29665750D01*
X-2588120Y+29665750D01*
X-2603360Y+29649875D01*
X-2603360Y+29586375D01*
X-2618600Y+29570500D01*
X-2633840Y+29570500D01*
X-2649080Y+29586375D01*
X-2649080Y+29649875D01*
X-2633840Y+29665750D01*
X-2618600Y+29729250D02*
X-2649080Y+29761000D01*
X-2557640Y+29761000D01*
X-2649080Y+29824500D02*
X-2572880Y+29824500D01*
X-2557640Y+29840375D01*
X-2557640Y+29903875D01*
X-2572880Y+29919750D01*
X-2649080Y+29919750D01*
X-5267000Y+27888000D02*
X-5267000Y+28015000D01*
X-5267000Y+27507000D02*
X-5267000Y+27634000D01*
X-5140000Y+27761000D02*
X-5142436Y+27786876D01*
X-5149485Y+27810848D01*
X-5160762Y+27832438D01*
X-5175878Y+27851170D01*
X-5194446Y+27866569D01*
X-5216081Y+27878158D01*
X-5240394Y+27885460D01*
X-5267000Y+27888000D01*
X-5140000Y+27761000D02*
X-5142436Y+27734394D01*
X-5149485Y+27710081D01*
X-5160762Y+27688446D01*
X-5175878Y+27669878D01*
X-5194446Y+27654762D01*
X-5216081Y+27643485D01*
X-5240394Y+27636436D01*
X-5267000Y+27634000D01*
X-5267000Y+27507000D02*
X-3489000Y+27507000D01*
X-3489000Y+28015000D01*
X-5267000Y+28015000D01*
X-5322880Y+27570500D02*
X-5307640Y+27586375D01*
X-5307640Y+27649875D01*
X-5322880Y+27665750D01*
X-5338120Y+27665750D01*
X-5353360Y+27649875D01*
X-5353360Y+27586375D01*
X-5368600Y+27570500D01*
X-5383840Y+27570500D01*
X-5399080Y+27586375D01*
X-5399080Y+27649875D01*
X-5383840Y+27665750D01*
X-5383840Y+27713375D02*
X-5399080Y+27729250D01*
X-5399080Y+27776875D01*
X-5383840Y+27792750D01*
X-5368600Y+27792750D01*
X-5353360Y+27776875D01*
X-5353360Y+27729250D01*
X-5338120Y+27713375D01*
X-5307640Y+27713375D01*
X-5307640Y+27792750D01*
X-5307640Y+27824500D02*
X-5399080Y+27824500D01*
X-5399080Y+27888000D01*
X-5368600Y+27919750D01*
X-5338120Y+27919750D01*
X-5307640Y+27888000D01*
X-5307640Y+27824500D01*
X-5527000Y+29507000D02*
X-5527000Y+29634000D01*
X-5400000Y+29761000D02*
X-5402436Y+29786876D01*
X-5409485Y+29810848D01*
X-5420762Y+29832438D01*
X-5435878Y+29851170D01*
X-5454446Y+29866569D01*
X-5476081Y+29878158D01*
X-5500394Y+29885460D01*
X-5527000Y+29888000D01*
X-5400000Y+29761000D02*
X-5402436Y+29734394D01*
X-5409485Y+29710081D01*
X-5420762Y+29688446D01*
X-5435878Y+29669878D01*
X-5454446Y+29654762D01*
X-5476081Y+29643485D01*
X-5500394Y+29636436D01*
X-5527000Y+29634000D01*
X-5527000Y+29888000D02*
X-5527000Y+30015000D01*
X-3495000Y+29507000D02*
X-3495000Y+30015000D01*
X-5527000Y+29507000D02*
X-3495000Y+29507000D01*
X-3495000Y+30015000D02*
X-5527000Y+30015000D01*
X-5582880Y+29570500D02*
X-5567640Y+29586375D01*
X-5567640Y+29649875D01*
X-5582880Y+29665750D01*
X-5598120Y+29665750D01*
X-5613360Y+29649875D01*
X-5613360Y+29586375D01*
X-5628600Y+29570500D01*
X-5643840Y+29570500D01*
X-5659080Y+29586375D01*
X-5659080Y+29649875D01*
X-5643840Y+29665750D01*
X-5643840Y+29713375D02*
X-5659080Y+29729250D01*
X-5659080Y+29776875D01*
X-5643840Y+29792750D01*
X-5628600Y+29792750D01*
X-5613360Y+29776875D01*
X-5613360Y+29729250D01*
X-5598120Y+29713375D01*
X-5567640Y+29713375D01*
X-5567640Y+29792750D01*
X-5659080Y+29824500D02*
X-5582880Y+29824500D01*
X-5567640Y+29840375D01*
X-5567640Y+29903875D01*
X-5582880Y+29919750D01*
X-5659080Y+29919750D01*
X-9267000Y+27888000D02*
X-9267000Y+28015000D01*
X-9267000Y+27507000D02*
X-9267000Y+27634000D01*
X-9140000Y+27761000D02*
X-9142436Y+27786876D01*
X-9149485Y+27810848D01*
X-9160762Y+27832438D01*
X-9175878Y+27851170D01*
X-9194446Y+27866569D01*
X-9216081Y+27878158D01*
X-9240394Y+27885460D01*
X-9267000Y+27888000D01*
X-9140000Y+27761000D02*
X-9142436Y+27734394D01*
X-9149485Y+27710081D01*
X-9160762Y+27688446D01*
X-9175878Y+27669878D01*
X-9194446Y+27654762D01*
X-9216081Y+27643485D01*
X-9240394Y+27636436D01*
X-9267000Y+27634000D01*
X-9267000Y+27507000D02*
X-7489000Y+27507000D01*
X-7489000Y+28015000D01*
X-9267000Y+28015000D01*
X-9307640Y+27570500D02*
X-9399080Y+27570500D01*
X-9353360Y+27618125D01*
X-9399080Y+27665750D01*
X-9307640Y+27665750D01*
X-9368600Y+27729250D02*
X-9399080Y+27761000D01*
X-9307640Y+27761000D01*
X-9307640Y+27824500D02*
X-9399080Y+27824500D01*
X-9399080Y+27888000D01*
X-9368600Y+27919750D01*
X-9338120Y+27919750D01*
X-9307640Y+27888000D01*
X-9307640Y+27824500D01*
X-9527000Y+29507000D02*
X-9527000Y+29634000D01*
X-9400000Y+29761000D02*
X-9402436Y+29786876D01*
X-9409485Y+29810848D01*
X-9420762Y+29832438D01*
X-9435878Y+29851170D01*
X-9454446Y+29866569D01*
X-9476081Y+29878158D01*
X-9500394Y+29885460D01*
X-9527000Y+29888000D01*
X-9400000Y+29761000D02*
X-9402436Y+29734394D01*
X-9409485Y+29710081D01*
X-9420762Y+29688446D01*
X-9435878Y+29669878D01*
X-9454446Y+29654762D01*
X-9476081Y+29643485D01*
X-9500394Y+29636436D01*
X-9527000Y+29634000D01*
X-9527000Y+29888000D02*
X-9527000Y+30015000D01*
X-7495000Y+29507000D02*
X-7495000Y+30015000D01*
X-9527000Y+29507000D02*
X-7495000Y+29507000D01*
X-7495000Y+30015000D02*
X-9527000Y+30015000D01*
X-9567640Y+29570500D02*
X-9659080Y+29570500D01*
X-9613360Y+29618125D01*
X-9659080Y+29665750D01*
X-9567640Y+29665750D01*
X-9628600Y+29729250D02*
X-9659080Y+29761000D01*
X-9567640Y+29761000D01*
X-9659080Y+29824500D02*
X-9582880Y+29824500D01*
X-9567640Y+29840375D01*
X-9567640Y+29903875D01*
X-9582880Y+29919750D01*
X-9659080Y+29919750D01*
X-12267000Y+27888000D02*
X-12267000Y+28015000D01*
X-12267000Y+27507000D02*
X-12267000Y+27634000D01*
X-12140000Y+27761000D02*
X-12142436Y+27786876D01*
X-12149485Y+27810848D01*
X-12160762Y+27832438D01*
X-12175878Y+27851170D01*
X-12194446Y+27866569D01*
X-12216081Y+27878158D01*
X-12240394Y+27885460D01*
X-12267000Y+27888000D01*
X-12140000Y+27761000D02*
X-12142436Y+27734394D01*
X-12149485Y+27710081D01*
X-12160762Y+27688446D01*
X-12175878Y+27669878D01*
X-12194446Y+27654762D01*
X-12216081Y+27643485D01*
X-12240394Y+27636436D01*
X-12267000Y+27634000D01*
X-12267000Y+27507000D02*
X-10489000Y+27507000D01*
X-10489000Y+28015000D01*
X-12267000Y+28015000D01*
X-12307640Y+27570500D02*
X-12399080Y+27570500D01*
X-12353360Y+27618125D01*
X-12399080Y+27665750D01*
X-12307640Y+27665750D01*
X-12383840Y+27713375D02*
X-12399080Y+27729250D01*
X-12399080Y+27776875D01*
X-12383840Y+27792750D01*
X-12368600Y+27792750D01*
X-12353360Y+27776875D01*
X-12353360Y+27729250D01*
X-12338120Y+27713375D01*
X-12307640Y+27713375D01*
X-12307640Y+27792750D01*
X-12307640Y+27824500D02*
X-12399080Y+27824500D01*
X-12399080Y+27888000D01*
X-12368600Y+27919750D01*
X-12338120Y+27919750D01*
X-12307640Y+27888000D01*
X-12307640Y+27824500D01*
X-12527000Y+29497000D02*
X-12527000Y+29624000D01*
X-12400000Y+29751000D02*
X-12402436Y+29776876D01*
X-12409485Y+29800848D01*
X-12420762Y+29822438D01*
X-12435878Y+29841170D01*
X-12454446Y+29856569D01*
X-12476081Y+29868158D01*
X-12500394Y+29875460D01*
X-12527000Y+29878000D01*
X-12400000Y+29751000D02*
X-12402436Y+29724394D01*
X-12409485Y+29700081D01*
X-12420762Y+29678446D01*
X-12435878Y+29659878D01*
X-12454446Y+29644762D01*
X-12476081Y+29633485D01*
X-12500394Y+29626436D01*
X-12527000Y+29624000D01*
X-12527000Y+29878000D02*
X-12527000Y+30005000D01*
X-10495000Y+29497000D02*
X-10495000Y+30005000D01*
X-12527000Y+29497000D02*
X-10495000Y+29497000D01*
X-10495000Y+30005000D02*
X-12527000Y+30005000D01*
X-12567640Y+29560500D02*
X-12659080Y+29560500D01*
X-12613360Y+29608125D01*
X-12659080Y+29655750D01*
X-12567640Y+29655750D01*
X-12643840Y+29703375D02*
X-12659080Y+29719250D01*
X-12659080Y+29766875D01*
X-12643840Y+29782750D01*
X-12628600Y+29782750D01*
X-12613360Y+29766875D01*
X-12613360Y+29719250D01*
X-12598120Y+29703375D01*
X-12567640Y+29703375D01*
X-12567640Y+29782750D01*
X-12659080Y+29814500D02*
X-12582880Y+29814500D01*
X-12567640Y+29830375D01*
X-12567640Y+29893875D01*
X-12582880Y+29909750D01*
X-12659080Y+29909750D01*
X-15257000Y+27888000D02*
X-15257000Y+28015000D01*
X-15257000Y+27507000D02*
X-15257000Y+27634000D01*
X-15130000Y+27761000D02*
X-15132436Y+27786876D01*
X-15139485Y+27810848D01*
X-15150762Y+27832438D01*
X-15165878Y+27851170D01*
X-15184446Y+27866569D01*
X-15206081Y+27878158D01*
X-15230394Y+27885460D01*
X-15257000Y+27888000D01*
X-15130000Y+27761000D02*
X-15132436Y+27734394D01*
X-15139485Y+27710081D01*
X-15150762Y+27688446D01*
X-15165878Y+27669878D01*
X-15184446Y+27654762D01*
X-15206081Y+27643485D01*
X-15230394Y+27636436D01*
X-15257000Y+27634000D01*
X-15257000Y+27507000D02*
X-13479000Y+27507000D01*
X-13479000Y+28015000D01*
X-15257000Y+28015000D01*
X-15297640Y+27570500D02*
X-15389080Y+27570500D01*
X-15389080Y+27665750D02*
X-15297640Y+27665750D01*
X-15343360Y+27570500D02*
X-15343360Y+27665750D01*
X-15358600Y+27729250D02*
X-15389080Y+27761000D01*
X-15297640Y+27761000D01*
X-15297640Y+27824500D02*
X-15389080Y+27824500D01*
X-15389080Y+27888000D01*
X-15358600Y+27919750D01*
X-15328120Y+27919750D01*
X-15297640Y+27888000D01*
X-15297640Y+27824500D01*
X-15527000Y+29507000D02*
X-15527000Y+29634000D01*
X-15400000Y+29761000D02*
X-15402436Y+29786876D01*
X-15409485Y+29810848D01*
X-15420762Y+29832438D01*
X-15435878Y+29851170D01*
X-15454446Y+29866569D01*
X-15476081Y+29878158D01*
X-15500394Y+29885460D01*
X-15527000Y+29888000D01*
X-15400000Y+29761000D02*
X-15402436Y+29734394D01*
X-15409485Y+29710081D01*
X-15420762Y+29688446D01*
X-15435878Y+29669878D01*
X-15454446Y+29654762D01*
X-15476081Y+29643485D01*
X-15500394Y+29636436D01*
X-15527000Y+29634000D01*
X-15527000Y+29888000D02*
X-15527000Y+30015000D01*
X-13495000Y+29507000D02*
X-13495000Y+30015000D01*
X-15527000Y+29507000D02*
X-13495000Y+29507000D01*
X-13495000Y+30015000D02*
X-15527000Y+30015000D01*
X-15567640Y+29570500D02*
X-15659080Y+29570500D01*
X-15659080Y+29665750D02*
X-15567640Y+29665750D01*
X-15613360Y+29570500D02*
X-15613360Y+29665750D01*
X-15628600Y+29729250D02*
X-15659080Y+29761000D01*
X-15567640Y+29761000D01*
X-15659080Y+29824500D02*
X-15582880Y+29824500D01*
X-15567640Y+29840375D01*
X-15567640Y+29903875D01*
X-15582880Y+29919750D01*
X-15659080Y+29919750D01*
X-18267000Y+27888000D02*
X-18267000Y+28015000D01*
X-18267000Y+27507000D02*
X-18267000Y+27634000D01*
X-18140000Y+27761000D02*
X-18142436Y+27786876D01*
X-18149485Y+27810848D01*
X-18160762Y+27832438D01*
X-18175878Y+27851170D01*
X-18194446Y+27866569D01*
X-18216081Y+27878158D01*
X-18240394Y+27885460D01*
X-18267000Y+27888000D01*
X-18140000Y+27761000D02*
X-18142436Y+27734394D01*
X-18149485Y+27710081D01*
X-18160762Y+27688446D01*
X-18175878Y+27669878D01*
X-18194446Y+27654762D01*
X-18216081Y+27643485D01*
X-18240394Y+27636436D01*
X-18267000Y+27634000D01*
X-18267000Y+27507000D02*
X-16489000Y+27507000D01*
X-16489000Y+28015000D01*
X-18267000Y+28015000D01*
X-18307640Y+27570500D02*
X-18399080Y+27570500D01*
X-18399080Y+27665750D02*
X-18307640Y+27665750D01*
X-18353360Y+27570500D02*
X-18353360Y+27665750D01*
X-18383840Y+27713375D02*
X-18399080Y+27729250D01*
X-18399080Y+27776875D01*
X-18383840Y+27792750D01*
X-18368600Y+27792750D01*
X-18353360Y+27776875D01*
X-18353360Y+27729250D01*
X-18338120Y+27713375D01*
X-18307640Y+27713375D01*
X-18307640Y+27792750D01*
X-18307640Y+27824500D02*
X-18399080Y+27824500D01*
X-18399080Y+27888000D01*
X-18368600Y+27919750D01*
X-18338120Y+27919750D01*
X-18307640Y+27888000D01*
X-18307640Y+27824500D01*
X-18527000Y+29507000D02*
X-18527000Y+29634000D01*
X-18400000Y+29761000D02*
X-18402436Y+29786876D01*
X-18409485Y+29810848D01*
X-18420762Y+29832438D01*
X-18435878Y+29851170D01*
X-18454446Y+29866569D01*
X-18476081Y+29878158D01*
X-18500394Y+29885460D01*
X-18527000Y+29888000D01*
X-18400000Y+29761000D02*
X-18402436Y+29734394D01*
X-18409485Y+29710081D01*
X-18420762Y+29688446D01*
X-18435878Y+29669878D01*
X-18454446Y+29654762D01*
X-18476081Y+29643485D01*
X-18500394Y+29636436D01*
X-18527000Y+29634000D01*
X-18527000Y+29888000D02*
X-18527000Y+30015000D01*
X-16495000Y+29507000D02*
X-16495000Y+30015000D01*
X-18527000Y+29507000D02*
X-16495000Y+29507000D01*
X-16495000Y+30015000D02*
X-18527000Y+30015000D01*
X-18567640Y+29570500D02*
X-18659080Y+29570500D01*
X-18659080Y+29665750D02*
X-18567640Y+29665750D01*
X-18613360Y+29570500D02*
X-18613360Y+29665750D01*
X-18643840Y+29713375D02*
X-18659080Y+29729250D01*
X-18659080Y+29776875D01*
X-18643840Y+29792750D01*
X-18628600Y+29792750D01*
X-18613360Y+29776875D01*
X-18613360Y+29729250D01*
X-18598120Y+29713375D01*
X-18567640Y+29713375D01*
X-18567640Y+29792750D01*
X-18659080Y+29824500D02*
X-18582880Y+29824500D01*
X-18567640Y+29840375D01*
X-18567640Y+29903875D01*
X-18582880Y+29919750D01*
X-18659080Y+29919750D01*
X-18267000Y+26388000D02*
X-18267000Y+26515000D01*
X-18267000Y+26007000D02*
X-18267000Y+26134000D01*
X-18140000Y+26261000D02*
X-18142436Y+26286876D01*
X-18149485Y+26310848D01*
X-18160762Y+26332438D01*
X-18175878Y+26351170D01*
X-18194446Y+26366569D01*
X-18216081Y+26378158D01*
X-18240394Y+26385460D01*
X-18267000Y+26388000D01*
X-18140000Y+26261000D02*
X-18142436Y+26234394D01*
X-18149485Y+26210081D01*
X-18160762Y+26188446D01*
X-18175878Y+26169878D01*
X-18194446Y+26154762D01*
X-18216081Y+26143485D01*
X-18240394Y+26136436D01*
X-18267000Y+26134000D01*
X-18267000Y+26007000D02*
X-16489000Y+26007000D01*
X-16489000Y+26515000D01*
X-18267000Y+26515000D01*
X-18399080Y+26134000D02*
X-18322880Y+26134000D01*
X-18307640Y+26149875D01*
X-18307640Y+26213375D01*
X-18322880Y+26229250D01*
X-18399080Y+26229250D01*
X-18383840Y+26276875D02*
X-18399080Y+26292750D01*
X-18399080Y+26340375D01*
X-18383840Y+26356250D01*
X-18368600Y+26356250D01*
X-18353360Y+26340375D01*
X-18353360Y+26292750D01*
X-18338120Y+26276875D01*
X-18307640Y+26276875D01*
X-18307640Y+26356250D01*
X-9267000Y+26388000D02*
X-9267000Y+26515000D01*
X-9267000Y+26007000D02*
X-9267000Y+26134000D01*
X-9140000Y+26261000D02*
X-9142436Y+26286876D01*
X-9149485Y+26310848D01*
X-9160762Y+26332438D01*
X-9175878Y+26351170D01*
X-9194446Y+26366569D01*
X-9216081Y+26378158D01*
X-9240394Y+26385460D01*
X-9267000Y+26388000D01*
X-9140000Y+26261000D02*
X-9142436Y+26234394D01*
X-9149485Y+26210081D01*
X-9160762Y+26188446D01*
X-9175878Y+26169878D01*
X-9194446Y+26154762D01*
X-9216081Y+26143485D01*
X-9240394Y+26136436D01*
X-9267000Y+26134000D01*
X-9267000Y+26007000D02*
X-7489000Y+26007000D01*
X-7489000Y+26515000D01*
X-9267000Y+26515000D01*
X-9399080Y+26134000D02*
X-9322880Y+26134000D01*
X-9307640Y+26149875D01*
X-9307640Y+26213375D01*
X-9322880Y+26229250D01*
X-9399080Y+26229250D01*
X-9399080Y+26356250D02*
X-9399080Y+26276875D01*
X-9368600Y+26276875D01*
X-9368600Y+26340375D01*
X-9353360Y+26356250D01*
X-9322880Y+26356250D01*
X-9307640Y+26340375D01*
X-9307640Y+26292750D01*
X-9322880Y+26276875D01*
X-15257000Y+26388000D02*
X-15257000Y+26515000D01*
X-15257000Y+26007000D02*
X-15257000Y+26134000D01*
X-15130000Y+26261000D02*
X-15132436Y+26286876D01*
X-15139485Y+26310848D01*
X-15150762Y+26332438D01*
X-15165878Y+26351170D01*
X-15184446Y+26366569D01*
X-15206081Y+26378158D01*
X-15230394Y+26385460D01*
X-15257000Y+26388000D01*
X-15130000Y+26261000D02*
X-15132436Y+26234394D01*
X-15139485Y+26210081D01*
X-15150762Y+26188446D01*
X-15165878Y+26169878D01*
X-15184446Y+26154762D01*
X-15206081Y+26143485D01*
X-15230394Y+26136436D01*
X-15257000Y+26134000D01*
X-15257000Y+26007000D02*
X-13479000Y+26007000D01*
X-13479000Y+26515000D01*
X-15257000Y+26515000D01*
X-15389080Y+26134000D02*
X-15312880Y+26134000D01*
X-15297640Y+26149875D01*
X-15297640Y+26213375D01*
X-15312880Y+26229250D01*
X-15389080Y+26229250D01*
X-15389080Y+26276875D02*
X-15389080Y+26356250D01*
X-15373840Y+26356250D01*
X-15297640Y+26276875D01*
X-12267000Y+26388000D02*
X-12267000Y+26515000D01*
X-12267000Y+26007000D02*
X-12267000Y+26134000D01*
X-12140000Y+26261000D02*
X-12142436Y+26286876D01*
X-12149485Y+26310848D01*
X-12160762Y+26332438D01*
X-12175878Y+26351170D01*
X-12194446Y+26366569D01*
X-12216081Y+26378158D01*
X-12240394Y+26385460D01*
X-12267000Y+26388000D01*
X-12140000Y+26261000D02*
X-12142436Y+26234394D01*
X-12149485Y+26210081D01*
X-12160762Y+26188446D01*
X-12175878Y+26169878D01*
X-12194446Y+26154762D01*
X-12216081Y+26143485D01*
X-12240394Y+26136436D01*
X-12267000Y+26134000D01*
X-12267000Y+26007000D02*
X-10489000Y+26007000D01*
X-10489000Y+26515000D01*
X-12267000Y+26515000D01*
X-12399080Y+26070500D02*
X-12322880Y+26070500D01*
X-12307640Y+26086375D01*
X-12307640Y+26149875D01*
X-12322880Y+26165750D01*
X-12399080Y+26165750D01*
X-12368600Y+26229250D02*
X-12399080Y+26261000D01*
X-12307640Y+26261000D01*
X-12399080Y+26419750D02*
X-12399080Y+26340375D01*
X-12368600Y+26340375D01*
X-12368600Y+26403875D01*
X-12353360Y+26419750D01*
X-12322880Y+26419750D01*
X-12307640Y+26403875D01*
X-12307640Y+26356250D01*
X-12322880Y+26340375D01*
D29*
X-3943000Y+25970000D02*
X-3159800Y+25970000D01*
X-3820200Y+23990000D02*
X-3159800Y+23990000D01*
D28*
X-3648750Y+26040960D02*
X-3744000Y+26040960D01*
X-3680500Y+26101920D01*
X-3680500Y+26010480D01*
X-3617000Y+26025720D02*
X-3617000Y+26086680D01*
X-3601125Y+26101920D01*
X-3537625Y+26101920D01*
X-3521750Y+26086680D01*
X-3521750Y+26025720D01*
X-3537625Y+26010480D01*
X-3601125Y+26010480D01*
X-3617000Y+26025720D01*
X-3617000Y+26010480D02*
X-3521750Y+26101920D01*
X-3394750Y+26086680D02*
X-3410625Y+26101920D01*
X-3458250Y+26101920D01*
X-3474125Y+26086680D01*
X-3474125Y+26025720D01*
X-3458250Y+26010480D01*
X-3410625Y+26010480D01*
X-3394750Y+26025720D01*
X-3394750Y+26040960D01*
X-3410625Y+26056200D01*
X-3474125Y+26056200D01*
X-3363000Y+26025720D02*
X-3363000Y+26086680D01*
X-3347125Y+26101920D01*
X-3283625Y+26101920D01*
X-3267750Y+26086680D01*
X-3267750Y+26025720D01*
X-3283625Y+26010480D01*
X-3347125Y+26010480D01*
X-3363000Y+26025720D01*
X-3363000Y+26010480D02*
X-3267750Y+26101920D01*
D29*
X-1944000Y+25974000D02*
X-1160000Y+25974000D01*
X-1820000Y+24006000D02*
X-1160000Y+24006000D01*
D28*
X-1648750Y+26044960D02*
X-1744000Y+26044960D01*
X-1680500Y+26105920D01*
X-1680500Y+26014480D01*
X-1617000Y+26029720D02*
X-1617000Y+26090680D01*
X-1601125Y+26105920D01*
X-1537625Y+26105920D01*
X-1521750Y+26090680D01*
X-1521750Y+26029720D01*
X-1537625Y+26014480D01*
X-1601125Y+26014480D01*
X-1617000Y+26029720D01*
X-1617000Y+26014480D02*
X-1521750Y+26105920D01*
X-1474125Y+26090680D02*
X-1458250Y+26105920D01*
X-1410625Y+26105920D01*
X-1394750Y+26090680D01*
X-1394750Y+26075440D01*
X-1410625Y+26060200D01*
X-1458250Y+26060200D01*
X-1474125Y+26044960D01*
X-1474125Y+26014480D01*
X-1394750Y+26014480D01*
X-1347125Y+26105920D02*
X-1267750Y+26105920D01*
X-1267750Y+26090680D01*
X-1347125Y+26014480D01*
D27*
X-8625000Y+24721000D02*
X-7695000Y+24721000D01*
X-8655000Y+23581000D02*
X-7695000Y+23581000D01*
D28*
X-8733000Y+24876480D02*
X-8733000Y+24967920D01*
X-8685375Y+24922200D01*
X-8637750Y+24967920D01*
X-8637750Y+24876480D01*
X-8590125Y+24967920D02*
X-8526625Y+24967920D01*
X-8558375Y+24967920D02*
X-8558375Y+24876480D01*
X-8590125Y+24876480D02*
X-8526625Y+24876480D01*
X-8479000Y+24876480D02*
X-8479000Y+24967920D01*
X-8383750Y+24876480D01*
X-8383750Y+24967920D01*
X-8320250Y+24937440D02*
X-8288500Y+24967920D01*
X-8288500Y+24876480D01*
X-8098000Y+24891720D02*
X-8082125Y+24876480D01*
X-8018625Y+24876480D01*
X-8002750Y+24891720D01*
X-8002750Y+24906960D01*
X-8018625Y+24922200D01*
X-8082125Y+24922200D01*
X-8098000Y+24937440D01*
X-8098000Y+24952680D01*
X-8082125Y+24967920D01*
X-8018625Y+24967920D01*
X-8002750Y+24952680D01*
X-7875750Y+24876480D02*
X-7971000Y+24876480D01*
X-7971000Y+24967920D01*
X-7875750Y+24967920D01*
X-7971000Y+24922200D02*
X-7907500Y+24922200D01*
X-7844000Y+24967920D02*
X-7748750Y+24967920D01*
X-7796375Y+24967920D02*
X-7796375Y+24876480D01*
D27*
X-10995000Y+24721000D02*
X-10065000Y+24721000D01*
X-11025000Y+23581000D02*
X-10065000Y+23581000D01*
D28*
X-11023000Y+24756480D02*
X-11023000Y+24847920D01*
X-10975375Y+24802200D01*
X-10927750Y+24847920D01*
X-10927750Y+24756480D01*
X-10880125Y+24847920D02*
X-10816625Y+24847920D01*
X-10848375Y+24847920D02*
X-10848375Y+24756480D01*
X-10880125Y+24756480D02*
X-10816625Y+24756480D01*
X-10769000Y+24756480D02*
X-10769000Y+24847920D01*
X-10673750Y+24756480D01*
X-10673750Y+24847920D01*
X-10626125Y+24832680D02*
X-10610250Y+24847920D01*
X-10562625Y+24847920D01*
X-10546750Y+24832680D01*
X-10546750Y+24817440D01*
X-10562625Y+24802200D01*
X-10610250Y+24802200D01*
X-10626125Y+24786960D01*
X-10626125Y+24756480D01*
X-10546750Y+24756480D01*
X-10388000Y+24771720D02*
X-10372125Y+24756480D01*
X-10308625Y+24756480D01*
X-10292750Y+24771720D01*
X-10292750Y+24786960D01*
X-10308625Y+24802200D01*
X-10372125Y+24802200D01*
X-10388000Y+24817440D01*
X-10388000Y+24832680D01*
X-10372125Y+24847920D01*
X-10308625Y+24847920D01*
X-10292750Y+24832680D01*
X-10165750Y+24756480D02*
X-10261000Y+24756480D01*
X-10261000Y+24847920D01*
X-10165750Y+24847920D01*
X-10261000Y+24802200D02*
X-10197500Y+24802200D01*
X-10134000Y+24847920D02*
X-10038750Y+24847920D01*
X-10086375Y+24847920D02*
X-10086375Y+24756480D01*
D27*
X-13335000Y+24731000D02*
X-12405000Y+24731000D01*
X-13365000Y+23591000D02*
X-12405000Y+23591000D01*
D28*
X-13363000Y+24766480D02*
X-13363000Y+24857920D01*
X-13267750Y+24857920D02*
X-13267750Y+24766480D01*
X-13363000Y+24812200D02*
X-13267750Y+24812200D01*
X-13236000Y+24827440D02*
X-13204250Y+24857920D01*
X-13172500Y+24857920D01*
X-13140750Y+24827440D01*
X-13140750Y+24796960D01*
X-13172500Y+24766480D01*
X-13204250Y+24766480D01*
X-13236000Y+24796960D01*
X-13236000Y+24827440D01*
X-13109000Y+24857920D02*
X-13109000Y+24781720D01*
X-13093125Y+24766480D01*
X-13029625Y+24766480D01*
X-13013750Y+24781720D01*
X-13013750Y+24857920D01*
X-12982000Y+24766480D02*
X-12982000Y+24857920D01*
X-12902625Y+24857920D01*
X-12886750Y+24842680D01*
X-12886750Y+24827440D01*
X-12902625Y+24812200D01*
X-12982000Y+24812200D01*
X-12902625Y+24812200D02*
X-12886750Y+24796960D01*
X-12886750Y+24766480D01*
X-12728000Y+24781720D02*
X-12712125Y+24766480D01*
X-12648625Y+24766480D01*
X-12632750Y+24781720D01*
X-12632750Y+24796960D01*
X-12648625Y+24812200D01*
X-12712125Y+24812200D01*
X-12728000Y+24827440D01*
X-12728000Y+24842680D01*
X-12712125Y+24857920D01*
X-12648625Y+24857920D01*
X-12632750Y+24842680D01*
X-12505750Y+24766480D02*
X-12601000Y+24766480D01*
X-12601000Y+24857920D01*
X-12505750Y+24857920D01*
X-12601000Y+24812200D02*
X-12537500Y+24812200D01*
X-12474000Y+24857920D02*
X-12378750Y+24857920D01*
X-12426375Y+24857920D02*
X-12426375Y+24766480D01*
X-18083000Y+25077000D02*
X-17956000Y+25077000D01*
X-17829000Y+24950000D02*
X-17803124Y+24952436D01*
X-17779152Y+24959485D01*
X-17757562Y+24970762D01*
X-17738830Y+24985878D01*
X-17723431Y+25004446D01*
X-17711842Y+25026081D01*
X-17704540Y+25050394D01*
X-17702000Y+25077000D01*
X-17829000Y+24950000D02*
X-17855606Y+24952436D01*
X-17879919Y+24959485D01*
X-17901554Y+24970762D01*
X-17920122Y+24985878D01*
X-17935238Y+25004446D01*
X-17946515Y+25026081D01*
X-17953564Y+25050394D01*
X-17956000Y+25077000D01*
X-17702000Y+25077000D02*
X-17575000Y+25077000D01*
X-18083000Y+23045000D02*
X-17575000Y+23045000D01*
X-18083000Y+25077000D02*
X-18083000Y+23045000D01*
X-17575000Y+23045000D02*
X-17575000Y+25077000D01*
X-18039500Y+25117640D02*
X-18039500Y+25209080D01*
X-17991875Y+25163360D01*
X-17944250Y+25209080D01*
X-17944250Y+25117640D01*
X-17912500Y+25209080D02*
X-17912500Y+25132880D01*
X-17896625Y+25117640D01*
X-17833125Y+25117640D01*
X-17817250Y+25132880D01*
X-17817250Y+25209080D01*
X-17785500Y+25209080D02*
X-17690250Y+25117640D01*
X-17785500Y+25117640D02*
X-17690250Y+25209080D01*
D29*
X-16704000Y+25024000D02*
X-15920000Y+25024000D01*
X-16580000Y+23056000D02*
X-15920000Y+23056000D01*
D28*
X-16377000Y+25094960D02*
X-16377000Y+25079720D01*
X-16361125Y+25064480D01*
X-16297625Y+25064480D01*
X-16281750Y+25079720D01*
X-16281750Y+25155920D01*
X-16250000Y+25155920D02*
X-16250000Y+25064480D01*
X-16154750Y+25155920D02*
X-16202375Y+25110200D01*
X-16154750Y+25064480D01*
X-16250000Y+25110200D02*
X-16202375Y+25110200D01*
X-89000Y+34840000D02*
X-89827Y+34860483D01*
X-96545Y+34901450D01*
X-110563Y+34942417D01*
X-133341Y+34983384D01*
X-168141Y+35024229D01*
X-209108Y+35055845D01*
X-250075Y+35076392D01*
X-291042Y+35088629D01*
X-332009Y+35093762D01*
X-343000Y+35094000D01*
X-597000Y+34840000D02*
X-596173Y+34860483D01*
X-589455Y+34901450D01*
X-575437Y+34942417D01*
X-552659Y+34983384D01*
X-517859Y+35024229D01*
X-476892Y+35055845D01*
X-435925Y+35076392D01*
X-394958Y+35088629D01*
X-353991Y+35093762D01*
X-343000Y+35094000D01*
X-597000Y+34840000D02*
X-596173Y+34819517D01*
X-589455Y+34778550D01*
X-575437Y+34737583D01*
X-552659Y+34696616D01*
X-517859Y+34655771D01*
X-476892Y+34624155D01*
X-435925Y+34603608D01*
X-394958Y+34591371D01*
X-353991Y+34586238D01*
X-343000Y+34586000D01*
X-89000Y+34840000D02*
X-89827Y+34819517D01*
X-96545Y+34778550D01*
X-110563Y+34737583D01*
X-133341Y+34696616D01*
X-168141Y+34655771D01*
X-209108Y+34624155D01*
X-250075Y+34603608D01*
X-291042Y+34591371D01*
X-332009Y+34586238D01*
X-343000Y+34586000D01*
X-660500Y+35094000D02*
X-533500Y+35094000D01*
X-597000Y+35157500D02*
X-597000Y+35030500D01*
X-501750Y+35198140D02*
X-501750Y+35259100D01*
X-470000Y+35289580D01*
X-438250Y+35289580D01*
X-406500Y+35259100D01*
X-406500Y+35198140D01*
X-501750Y+35228620D02*
X-406500Y+35228620D01*
X-374750Y+35198140D02*
X-374750Y+35289580D01*
X-327125Y+35243860D01*
X-279500Y+35289580D01*
X-279500Y+35198140D01*
X-99000Y+33810000D02*
X-99827Y+33830483D01*
X-106545Y+33871450D01*
X-120563Y+33912417D01*
X-143341Y+33953384D01*
X-178141Y+33994229D01*
X-219108Y+34025845D01*
X-260075Y+34046392D01*
X-301042Y+34058629D01*
X-342009Y+34063762D01*
X-353000Y+34064000D01*
X-607000Y+33810000D02*
X-606173Y+33830483D01*
X-599455Y+33871450D01*
X-585437Y+33912417D01*
X-562659Y+33953384D01*
X-527859Y+33994229D01*
X-486892Y+34025845D01*
X-445925Y+34046392D01*
X-404958Y+34058629D01*
X-363991Y+34063762D01*
X-353000Y+34064000D01*
X-607000Y+33810000D02*
X-606173Y+33789517D01*
X-599455Y+33748550D01*
X-585437Y+33707583D01*
X-562659Y+33666616D01*
X-527859Y+33625771D01*
X-486892Y+33594155D01*
X-445925Y+33573608D01*
X-404958Y+33561371D01*
X-363991Y+33556238D01*
X-353000Y+33556000D01*
X-99000Y+33810000D02*
X-99827Y+33789517D01*
X-106545Y+33748550D01*
X-120563Y+33707583D01*
X-143341Y+33666616D01*
X-178141Y+33625771D01*
X-219108Y+33594155D01*
X-260075Y+33573608D01*
X-301042Y+33561371D01*
X-342009Y+33556238D01*
X-353000Y+33556000D01*
X-670500Y+34064000D02*
X-543500Y+34064000D01*
X-607000Y+34127500D02*
X-607000Y+34000500D01*
X-511750Y+34168140D02*
X-511750Y+34259580D01*
X-432375Y+34259580D01*
X-416500Y+34244340D01*
X-416500Y+34229100D01*
X-432375Y+34213860D01*
X-511750Y+34213860D01*
X-384750Y+34168140D02*
X-384750Y+34259580D01*
X-337125Y+34213860D01*
X-289500Y+34259580D01*
X-289500Y+34168140D01*
D27*
X-655000Y+31901000D02*
X+275000Y+31901000D01*
X-685000Y+30761000D02*
X+275000Y+30761000D01*
D28*
X-492500Y+31936480D02*
X-492500Y+31997440D01*
X-460750Y+32027920D01*
X-429000Y+32027920D01*
X-397250Y+31997440D01*
X-397250Y+31936480D01*
X-492500Y+31966960D02*
X-397250Y+31966960D01*
X-365500Y+31936480D02*
X-365500Y+32027920D01*
X-317875Y+31982200D01*
X-270250Y+32027920D01*
X-270250Y+31936480D01*
X-143250Y+32027920D02*
X-238500Y+31936480D01*
X-111500Y+31936480D02*
X-111500Y+32027920D01*
X-32125Y+32027920D01*
X-16250Y+32012680D01*
X-16250Y+31997440D01*
X-32125Y+31982200D01*
X-111500Y+31982200D01*
X+15500Y+31936480D02*
X+15500Y+32027920D01*
X+63125Y+31982200D01*
X+110750Y+32027920D01*
X+110750Y+31936480D01*
X-5383000Y+26000000D02*
X-5256000Y+26000000D01*
X-5256000Y+25936500D02*
X-4748000Y+25936500D01*
X-4748000Y+26063500D01*
X-5256000Y+26063500D01*
X-5256000Y+25936500D01*
X-4748000Y+26000000D02*
X-4621000Y+26000000D01*
X-5160750Y+26180340D02*
X-5176625Y+26195580D01*
X-5224250Y+26195580D01*
X-5240125Y+26180340D01*
X-5240125Y+26119380D01*
X-5224250Y+26104140D01*
X-5176625Y+26104140D01*
X-5160750Y+26119380D01*
X-5160750Y+26134620D01*
X-5176625Y+26149860D01*
X-5240125Y+26149860D01*
X-5081375Y+26119380D02*
X-5065500Y+26119380D01*
X-5065500Y+26104140D01*
X-5081375Y+26104140D01*
X-5081375Y+26119380D01*
X-4970250Y+26149860D02*
X-4986125Y+26165100D01*
X-4986125Y+26180340D01*
X-4970250Y+26195580D01*
X-4922625Y+26195580D01*
X-4906750Y+26180340D01*
X-4906750Y+26165100D01*
X-4922625Y+26149860D01*
X-4970250Y+26149860D01*
X-4986125Y+26134620D01*
X-4986125Y+26119380D01*
X-4970250Y+26104140D01*
X-4922625Y+26104140D01*
X-4906750Y+26119380D01*
X-4906750Y+26134620D01*
X-4922625Y+26149860D01*
X-4875000Y+26104140D02*
X-4875000Y+26195580D01*
X-4827375Y+26149860D01*
X-4779750Y+26195580D01*
X-4779750Y+26104140D01*
X-5383000Y+25550000D02*
X-5256000Y+25550000D01*
X-5256000Y+25486500D02*
X-4748000Y+25486500D01*
X-4748000Y+25613500D01*
X-5256000Y+25613500D01*
X-5256000Y+25486500D01*
X-4748000Y+25550000D02*
X-4621000Y+25550000D01*
X-5160750Y+25730340D02*
X-5176625Y+25745580D01*
X-5224250Y+25745580D01*
X-5240125Y+25730340D01*
X-5240125Y+25669380D01*
X-5224250Y+25654140D01*
X-5176625Y+25654140D01*
X-5160750Y+25669380D01*
X-5160750Y+25684620D01*
X-5176625Y+25699860D01*
X-5240125Y+25699860D01*
X-5081375Y+25669380D02*
X-5065500Y+25669380D01*
X-5065500Y+25654140D01*
X-5081375Y+25654140D01*
X-5081375Y+25669380D01*
X-4970250Y+25699860D02*
X-4986125Y+25715100D01*
X-4986125Y+25730340D01*
X-4970250Y+25745580D01*
X-4922625Y+25745580D01*
X-4906750Y+25730340D01*
X-4906750Y+25715100D01*
X-4922625Y+25699860D01*
X-4970250Y+25699860D01*
X-4986125Y+25684620D01*
X-4986125Y+25669380D01*
X-4970250Y+25654140D01*
X-4922625Y+25654140D01*
X-4906750Y+25669380D01*
X-4906750Y+25684620D01*
X-4922625Y+25699860D01*
X-4875000Y+25654140D02*
X-4875000Y+25745580D01*
X-4827375Y+25699860D01*
X-4779750Y+25745580D01*
X-4779750Y+25654140D01*
X-5383000Y+25070000D02*
X-5256000Y+25070000D01*
X-5256000Y+25006500D02*
X-4748000Y+25006500D01*
X-4748000Y+25133500D01*
X-5256000Y+25133500D01*
X-5256000Y+25006500D01*
X-4748000Y+25070000D02*
X-4621000Y+25070000D01*
X-5240125Y+25250340D02*
X-5224250Y+25265580D01*
X-5176625Y+25265580D01*
X-5160750Y+25250340D01*
X-5160750Y+25235100D01*
X-5176625Y+25219860D01*
X-5160750Y+25204620D01*
X-5160750Y+25189380D01*
X-5176625Y+25174140D01*
X-5224250Y+25174140D01*
X-5240125Y+25189380D01*
X-5208375Y+25219860D02*
X-5176625Y+25219860D01*
X-5113125Y+25250340D02*
X-5097250Y+25265580D01*
X-5049625Y+25265580D01*
X-5033750Y+25250340D01*
X-5033750Y+25235100D01*
X-5049625Y+25219860D01*
X-5033750Y+25204620D01*
X-5033750Y+25189380D01*
X-5049625Y+25174140D01*
X-5097250Y+25174140D01*
X-5113125Y+25189380D01*
X-5081375Y+25219860D02*
X-5049625Y+25219860D01*
X-5002000Y+25189380D02*
X-5002000Y+25250340D01*
X-4986125Y+25265580D01*
X-4922625Y+25265580D01*
X-4906750Y+25250340D01*
X-4906750Y+25189380D01*
X-4922625Y+25174140D01*
X-4986125Y+25174140D01*
X-5002000Y+25189380D01*
X-5002000Y+25174140D02*
X-4906750Y+25265580D01*
X-4875000Y+25265580D02*
X-4875000Y+25174140D01*
X-4779750Y+25265580D02*
X-4827375Y+25219860D01*
X-4779750Y+25174140D01*
X-4875000Y+25219860D02*
X-4827375Y+25219860D01*
X-3907000Y+26440000D02*
X-3899484Y+26465876D01*
X-3877830Y+26489848D01*
X-3843376Y+26511438D01*
X-3797462Y+26530170D01*
X-3741428Y+26545569D01*
X-3676614Y+26557158D01*
X-3604358Y+26564460D01*
X-3526000Y+26567000D01*
X-3145000Y+26440000D02*
X-3152620Y+26465876D01*
X-3174528Y+26489848D01*
X-3209294Y+26511438D01*
X-3255490Y+26530170D01*
X-3311688Y+26545569D01*
X-3376458Y+26557158D01*
X-3448371Y+26564460D01*
X-3526000Y+26567000D01*
X-3145000Y+26440000D02*
X-3152620Y+26414124D01*
X-3174528Y+26390152D01*
X-3209294Y+26368562D01*
X-3255490Y+26349830D01*
X-3311688Y+26334431D01*
X-3376458Y+26322842D01*
X-3448371Y+26315540D01*
X-3526000Y+26313000D01*
X-3907000Y+26440000D02*
X-3899484Y+26414124D01*
X-3877830Y+26390152D01*
X-3843376Y+26368562D01*
X-3797462Y+26349830D01*
X-3741428Y+26334431D01*
X-3676614Y+26322842D01*
X-3604358Y+26315540D01*
X-3526000Y+26313000D01*
X-3687125Y+26733840D02*
X-3671250Y+26749080D01*
X-3623625Y+26749080D01*
X-3607750Y+26733840D01*
X-3607750Y+26718600D01*
X-3623625Y+26703360D01*
X-3607750Y+26688120D01*
X-3607750Y+26672880D01*
X-3623625Y+26657640D01*
X-3671250Y+26657640D01*
X-3687125Y+26672880D01*
X-3655375Y+26703360D02*
X-3623625Y+26703360D01*
X-3560125Y+26733840D02*
X-3544250Y+26749080D01*
X-3496625Y+26749080D01*
X-3480750Y+26733840D01*
X-3480750Y+26718600D01*
X-3496625Y+26703360D01*
X-3480750Y+26688120D01*
X-3480750Y+26672880D01*
X-3496625Y+26657640D01*
X-3544250Y+26657640D01*
X-3560125Y+26672880D01*
X-3528375Y+26703360D02*
X-3496625Y+26703360D01*
X-1947000Y+26430000D02*
X-1939484Y+26455876D01*
X-1917830Y+26479848D01*
X-1883376Y+26501438D01*
X-1837462Y+26520170D01*
X-1781428Y+26535569D01*
X-1716614Y+26547158D01*
X-1644358Y+26554460D01*
X-1566000Y+26557000D01*
X-1185000Y+26430000D02*
X-1192620Y+26455876D01*
X-1214528Y+26479848D01*
X-1249294Y+26501438D01*
X-1295490Y+26520170D01*
X-1351688Y+26535569D01*
X-1416458Y+26547158D01*
X-1488371Y+26554460D01*
X-1566000Y+26557000D01*
X-1185000Y+26430000D02*
X-1192620Y+26404124D01*
X-1214528Y+26380152D01*
X-1249294Y+26358562D01*
X-1295490Y+26339830D01*
X-1351688Y+26324431D01*
X-1416458Y+26312842D01*
X-1488371Y+26305540D01*
X-1566000Y+26303000D01*
X-1947000Y+26430000D02*
X-1939484Y+26404124D01*
X-1917830Y+26380152D01*
X-1883376Y+26358562D01*
X-1837462Y+26339830D01*
X-1781428Y+26324431D01*
X-1716614Y+26312842D01*
X-1644358Y+26305540D01*
X-1566000Y+26303000D01*
X-1577125Y+26723840D02*
X-1561250Y+26739080D01*
X-1513625Y+26739080D01*
X-1497750Y+26723840D01*
X-1497750Y+26708600D01*
X-1513625Y+26693360D01*
X-1497750Y+26678120D01*
X-1497750Y+26662880D01*
X-1513625Y+26647640D01*
X-1561250Y+26647640D01*
X-1577125Y+26662880D01*
X-1545375Y+26693360D02*
X-1513625Y+26693360D01*
X-1450125Y+26723840D02*
X-1434250Y+26739080D01*
X-1386625Y+26739080D01*
X-1370750Y+26723840D01*
X-1370750Y+26708600D01*
X-1386625Y+26693360D01*
X-1370750Y+26678120D01*
X-1370750Y+26662880D01*
X-1386625Y+26647640D01*
X-1434250Y+26647640D01*
X-1450125Y+26662880D01*
X-1418375Y+26693360D02*
X-1386625Y+26693360D01*
X-2473000Y+35940000D02*
X-2346000Y+35940000D01*
X-2346000Y+35876500D02*
X-1838000Y+35876500D01*
X-1838000Y+36003500D01*
X-2346000Y+36003500D01*
X-2346000Y+35876500D01*
X-1838000Y+35940000D02*
X-1711000Y+35940000D01*
X-2282500Y+36059380D02*
X-2266625Y+36044140D01*
X-2203125Y+36044140D01*
X-2187250Y+36059380D01*
X-2187250Y+36074620D01*
X-2203125Y+36089860D01*
X-2266625Y+36089860D01*
X-2282500Y+36105100D01*
X-2282500Y+36120340D01*
X-2266625Y+36135580D01*
X-2203125Y+36135580D01*
X-2187250Y+36120340D01*
X-2123750Y+36105100D02*
X-2092000Y+36135580D01*
X-2092000Y+36044140D01*
X-2028500Y+36044140D02*
X-2028500Y+36135580D01*
X-1949125Y+36135580D01*
X-1933250Y+36120340D01*
X-1933250Y+36105100D01*
X-1949125Y+36089860D01*
X-2028500Y+36089860D01*
X-1949125Y+36089860D02*
X-1933250Y+36074620D01*
X-1933250Y+36044140D01*
X-17273000Y+35940000D02*
X-17146000Y+35940000D01*
X-17146000Y+35876500D02*
X-16638000Y+35876500D01*
X-16638000Y+36003500D01*
X-17146000Y+36003500D01*
X-17146000Y+35876500D01*
X-16638000Y+35940000D02*
X-16511000Y+35940000D01*
X-17082500Y+36044140D02*
X-17082500Y+36135580D01*
X-16987250Y+36135580D02*
X-16987250Y+36044140D01*
X-17082500Y+36089860D02*
X-16987250Y+36089860D01*
X-16939625Y+36120340D02*
X-16923750Y+36135580D01*
X-16876125Y+36135580D01*
X-16860250Y+36120340D01*
X-16860250Y+36105100D01*
X-16876125Y+36089860D01*
X-16923750Y+36089860D01*
X-16939625Y+36074620D01*
X-16939625Y+36044140D01*
X-16860250Y+36044140D01*
X-16828500Y+36044140D02*
X-16828500Y+36135580D01*
X-16749125Y+36135580D01*
X-16733250Y+36120340D01*
X-16733250Y+36105100D01*
X-16749125Y+36089860D01*
X-16828500Y+36089860D01*
X-16749125Y+36089860D02*
X-16733250Y+36074620D01*
X-16733250Y+36044140D01*
X-10873000Y+35940000D02*
X-10746000Y+35940000D01*
X-10746000Y+35876500D02*
X-10238000Y+35876500D01*
X-10238000Y+36003500D01*
X-10746000Y+36003500D01*
X-10746000Y+35876500D01*
X-10238000Y+35940000D02*
X-10111000Y+35940000D01*
X-10682500Y+36044140D02*
X-10682500Y+36135580D01*
X-10634875Y+36089860D01*
X-10587250Y+36135580D01*
X-10587250Y+36044140D01*
X-10539625Y+36120340D02*
X-10523750Y+36135580D01*
X-10476125Y+36135580D01*
X-10460250Y+36120340D01*
X-10460250Y+36105100D01*
X-10476125Y+36089860D01*
X-10523750Y+36089860D01*
X-10539625Y+36074620D01*
X-10539625Y+36044140D01*
X-10460250Y+36044140D01*
X-10428500Y+36044140D02*
X-10428500Y+36135580D01*
X-10349125Y+36135580D01*
X-10333250Y+36120340D01*
X-10333250Y+36105100D01*
X-10349125Y+36089860D01*
X-10428500Y+36089860D01*
X-10349125Y+36089860D02*
X-10333250Y+36074620D01*
X-10333250Y+36044140D01*
X-13261080Y+31807920D02*
X-12742920Y+31807920D01*
X-12742920Y+32074620D01*
X-13261080Y+32074620D01*
X-13261080Y+31807920D01*
X-13179800Y+32072080D02*
X-13179800Y+31810460D01*
X-13332200Y+31940000D02*
X-13261080Y+31940000D01*
X-12742920Y+31940000D02*
X-12671800Y+31940000D01*
X-13129000Y+32115260D02*
X-13129000Y+32206700D01*
X-13065500Y+32206700D01*
X-13033750Y+32176220D01*
X-13033750Y+32145740D01*
X-13065500Y+32115260D01*
X-13129000Y+32115260D01*
X-12970250Y+32176220D02*
X-12938500Y+32206700D01*
X-12938500Y+32115260D01*
X-13261080Y+31357920D02*
X-12742920Y+31357920D01*
X-12742920Y+31624620D01*
X-13261080Y+31624620D01*
X-13261080Y+31357920D01*
X-13179800Y+31622080D02*
X-13179800Y+31360460D01*
X-13332200Y+31490000D02*
X-13261080Y+31490000D01*
X-12742920Y+31490000D02*
X-12671800Y+31490000D01*
X-13129000Y+31665260D02*
X-13129000Y+31756700D01*
X-13065500Y+31756700D01*
X-13033750Y+31726220D01*
X-13033750Y+31695740D01*
X-13065500Y+31665260D01*
X-13129000Y+31665260D01*
X-12986125Y+31741460D02*
X-12970250Y+31756700D01*
X-12922625Y+31756700D01*
X-12906750Y+31741460D01*
X-12906750Y+31726220D01*
X-12922625Y+31710980D01*
X-12970250Y+31710980D01*
X-12986125Y+31695740D01*
X-12986125Y+31665260D01*
X-12906750Y+31665260D01*
X-13261080Y+30897920D02*
X-12742920Y+30897920D01*
X-12742920Y+31164620D01*
X-13261080Y+31164620D01*
X-13261080Y+30897920D01*
X-13179800Y+31162080D02*
X-13179800Y+30900460D01*
X-13332200Y+31030000D02*
X-13261080Y+31030000D01*
X-12742920Y+31030000D02*
X-12671800Y+31030000D01*
X-13129000Y+31205260D02*
X-13129000Y+31296700D01*
X-13065500Y+31296700D01*
X-13033750Y+31266220D01*
X-13033750Y+31235740D01*
X-13065500Y+31205260D01*
X-13129000Y+31205260D01*
X-12986125Y+31281460D02*
X-12970250Y+31296700D01*
X-12922625Y+31296700D01*
X-12906750Y+31281460D01*
X-12906750Y+31266220D01*
X-12922625Y+31250980D01*
X-12906750Y+31235740D01*
X-12906750Y+31220500D01*
X-12922625Y+31205260D01*
X-12970250Y+31205260D01*
X-12986125Y+31220500D01*
X-12954375Y+31250980D02*
X-12922625Y+31250980D01*
X-13261080Y+30427920D02*
X-12742920Y+30427920D01*
X-12742920Y+30694620D01*
X-13261080Y+30694620D01*
X-13261080Y+30427920D01*
X-13179800Y+30692080D02*
X-13179800Y+30430460D01*
X-13332200Y+30560000D02*
X-13261080Y+30560000D01*
X-12742920Y+30560000D02*
X-12671800Y+30560000D01*
X-13129000Y+30735260D02*
X-13129000Y+30826700D01*
X-13065500Y+30826700D01*
X-13033750Y+30796220D01*
X-13033750Y+30765740D01*
X-13065500Y+30735260D01*
X-13129000Y+30735260D01*
X-12906750Y+30765740D02*
X-13002000Y+30765740D01*
X-12938500Y+30826700D01*
X-12938500Y+30735260D01*
X-15283000Y+35944000D02*
X-15156000Y+35944000D01*
X-15156000Y+35880500D02*
X-14648000Y+35880500D01*
X-14648000Y+36007500D01*
X-15156000Y+36007500D01*
X-15156000Y+35880500D01*
X-14648000Y+35944000D02*
X-14521000Y+35944000D01*
X-15102500Y+36068140D02*
X-15102500Y+36159580D01*
X-15007250Y+36159580D02*
X-15007250Y+36068140D01*
X-15102500Y+36113860D02*
X-15007250Y+36113860D01*
X-14943750Y+36129100D02*
X-14912000Y+36159580D01*
X-14912000Y+36068140D01*
X-14848500Y+36068140D02*
X-14848500Y+36159580D01*
X-14769125Y+36159580D01*
X-14753250Y+36144340D01*
X-14753250Y+36129100D01*
X-14769125Y+36113860D01*
X-14848500Y+36113860D01*
X-14769125Y+36113860D02*
X-14753250Y+36098620D01*
X-14753250Y+36068140D01*
X-8873000Y+35944000D02*
X-8746000Y+35944000D01*
X-8746000Y+35880500D02*
X-8238000Y+35880500D01*
X-8238000Y+36007500D01*
X-8746000Y+36007500D01*
X-8746000Y+35880500D01*
X-8238000Y+35944000D02*
X-8111000Y+35944000D01*
X-8682500Y+36048140D02*
X-8682500Y+36139580D01*
X-8634875Y+36093860D01*
X-8587250Y+36139580D01*
X-8587250Y+36048140D01*
X-8523750Y+36109100D02*
X-8492000Y+36139580D01*
X-8492000Y+36048140D01*
X-8428500Y+36048140D02*
X-8428500Y+36139580D01*
X-8349125Y+36139580D01*
X-8333250Y+36124340D01*
X-8333250Y+36109100D01*
X-8349125Y+36093860D01*
X-8428500Y+36093860D01*
X-8349125Y+36093860D02*
X-8333250Y+36078620D01*
X-8333250Y+36048140D01*
X-4483000Y+35940000D02*
X-4356000Y+35940000D01*
X-4356000Y+35876500D02*
X-3848000Y+35876500D01*
X-3848000Y+36003500D01*
X-4356000Y+36003500D01*
X-4356000Y+35876500D01*
X-3848000Y+35940000D02*
X-3721000Y+35940000D01*
X-4302500Y+36059380D02*
X-4286625Y+36044140D01*
X-4223125Y+36044140D01*
X-4207250Y+36059380D01*
X-4207250Y+36074620D01*
X-4223125Y+36089860D01*
X-4286625Y+36089860D01*
X-4302500Y+36105100D01*
X-4302500Y+36120340D01*
X-4286625Y+36135580D01*
X-4223125Y+36135580D01*
X-4207250Y+36120340D01*
X-4159625Y+36120340D02*
X-4143750Y+36135580D01*
X-4096125Y+36135580D01*
X-4080250Y+36120340D01*
X-4080250Y+36105100D01*
X-4096125Y+36089860D01*
X-4143750Y+36089860D01*
X-4159625Y+36074620D01*
X-4159625Y+36044140D01*
X-4080250Y+36044140D01*
X-4048500Y+36044140D02*
X-4048500Y+36135580D01*
X-3969125Y+36135580D01*
X-3953250Y+36120340D01*
X-3953250Y+36105100D01*
X-3969125Y+36089860D01*
X-4048500Y+36089860D01*
X-3969125Y+36089860D02*
X-3953250Y+36074620D01*
X-3953250Y+36044140D01*
X-673000Y+32760000D02*
X-546000Y+32760000D01*
X-546000Y+32696500D02*
X-38000Y+32696500D01*
X-38000Y+32823500D01*
X-546000Y+32823500D01*
X-546000Y+32696500D01*
X-38000Y+32760000D02*
X+89000Y+32760000D01*
X-466625Y+32940340D02*
X-450750Y+32955580D01*
X-403125Y+32955580D01*
X-387250Y+32940340D01*
X-387250Y+32925100D01*
X-403125Y+32909860D01*
X-450750Y+32909860D01*
X-466625Y+32894620D01*
X-466625Y+32864140D01*
X-387250Y+32864140D01*
X-355500Y+32879380D02*
X-355500Y+32940340D01*
X-339625Y+32955580D01*
X-276125Y+32955580D01*
X-260250Y+32940340D01*
X-260250Y+32879380D01*
X-276125Y+32864140D01*
X-339625Y+32864140D01*
X-355500Y+32879380D01*
X-355500Y+32864140D02*
X-260250Y+32955580D01*
X-228500Y+32879380D02*
X-228500Y+32940340D01*
X-212625Y+32955580D01*
X-149125Y+32955580D01*
X-133250Y+32940340D01*
X-133250Y+32879380D01*
X-149125Y+32864140D01*
X-212625Y+32864140D01*
X-228500Y+32879380D01*
X-228500Y+32864140D02*
X-133250Y+32955580D01*
D72*
X+208600Y+24290000D02*
X+208469Y+24293158D01*
X+207403Y+24299476D01*
X+205172Y+24305794D01*
X+201527Y+24312112D01*
X+195952Y+24318351D01*
X+189634Y+24322947D01*
X+183316Y+24325880D01*
X+176998Y+24327542D01*
X+170680Y+24328100D01*
X+170500Y+24328100D01*
X+132400Y+24290000D02*
X+132531Y+24293158D01*
X+133597Y+24299476D01*
X+135828Y+24305794D01*
X+139473Y+24312112D01*
X+145048Y+24318351D01*
X+151366Y+24322947D01*
X+157684Y+24325880D01*
X+164002Y+24327542D01*
X+170320Y+24328100D01*
X+170500Y+24328100D01*
X+132400Y+24290000D02*
X+132531Y+24286842D01*
X+133597Y+24280524D01*
X+135828Y+24274206D01*
X+139473Y+24267888D01*
X+145048Y+24261649D01*
X+151366Y+24257053D01*
X+157684Y+24254120D01*
X+164002Y+24252458D01*
X+170320Y+24251900D01*
X+170500Y+24251900D01*
X+208600Y+24290000D02*
X+208469Y+24286842D01*
X+207403Y+24280524D01*
X+205172Y+24274206D01*
X+201527Y+24267888D01*
X+195952Y+24261649D01*
X+189634Y+24257053D01*
X+183316Y+24254120D01*
X+176998Y+24252458D01*
X+170680Y+24251900D01*
X+170500Y+24251900D01*
D73*
X+80660Y+24141080D02*
X+80660Y+24267593D01*
X+80660Y+24638920D02*
X-120000Y+24638920D01*
X-120000Y+24515191D01*
X-120000Y+24141080D02*
X+80660Y+24141080D01*
X+80660Y+24512407D02*
X+80660Y+24638920D01*
X-120000Y+24464809D02*
X-120000Y+24315191D01*
X-120000Y+24264809D02*
X-120000Y+24141080D01*
X+80660Y+24312407D02*
X+80660Y+24467593D01*
D28*
X-249540Y+24167750D02*
X-249540Y+24088375D01*
X-219060Y+24088375D01*
X-219060Y+24151875D01*
X-203820Y+24167750D01*
X-173340Y+24167750D01*
X-158100Y+24151875D01*
X-158100Y+24104250D01*
X-173340Y+24088375D01*
X-249540Y+24199500D02*
X-203820Y+24199500D01*
X-158100Y+24247125D01*
X-203820Y+24294750D01*
X-249540Y+24294750D01*
X-158100Y+24453500D02*
X-249540Y+24453500D01*
X-249540Y+24517000D01*
X-219060Y+24548750D01*
X-188580Y+24548750D01*
X-158100Y+24517000D01*
X-158100Y+24453500D01*
X-173340Y+24675750D02*
X-158100Y+24659875D01*
X-158100Y+24612250D01*
X-188580Y+24580500D01*
X-219060Y+24580500D01*
X-249540Y+24612250D01*
X-249540Y+24659875D01*
X-234300Y+24675750D01*
X-6873000Y+32000000D02*
X-6746000Y+32000000D01*
X-6746000Y+31936500D02*
X-6238000Y+31936500D01*
X-6238000Y+32063500D01*
X-6746000Y+32063500D01*
X-6746000Y+31936500D01*
X-6238000Y+32000000D02*
X-6111000Y+32000000D01*
X-6619000Y+32104140D02*
X-6619000Y+32195580D01*
X-6539625Y+32195580D01*
X-6523750Y+32180340D01*
X-6523750Y+32165100D01*
X-6539625Y+32149860D01*
X-6619000Y+32149860D01*
X-6539625Y+32149860D02*
X-6523750Y+32134620D01*
X-6523750Y+32104140D01*
X-6476125Y+32180340D02*
X-6460250Y+32195580D01*
X-6412625Y+32195580D01*
X-6396750Y+32180340D01*
X-6396750Y+32165100D01*
X-6412625Y+32149860D01*
X-6396750Y+32134620D01*
X-6396750Y+32119380D01*
X-6412625Y+32104140D01*
X-6460250Y+32104140D01*
X-6476125Y+32119380D01*
X-6444375Y+32149860D02*
X-6412625Y+32149860D01*
X-6873000Y+31580000D02*
X-6746000Y+31580000D01*
X-6746000Y+31516500D02*
X-6238000Y+31516500D01*
X-6238000Y+31643500D01*
X-6746000Y+31643500D01*
X-6746000Y+31516500D01*
X-6238000Y+31580000D02*
X-6111000Y+31580000D01*
X-6682500Y+31684140D02*
X-6682500Y+31775580D01*
X-6603125Y+31775580D01*
X-6587250Y+31760340D01*
X-6587250Y+31745100D01*
X-6603125Y+31729860D01*
X-6682500Y+31729860D01*
X-6603125Y+31729860D02*
X-6587250Y+31714620D01*
X-6587250Y+31684140D01*
X-6523750Y+31745100D02*
X-6492000Y+31775580D01*
X-6492000Y+31684140D01*
X-6428500Y+31699380D02*
X-6428500Y+31760340D01*
X-6412625Y+31775580D01*
X-6349125Y+31775580D01*
X-6333250Y+31760340D01*
X-6333250Y+31699380D01*
X-6349125Y+31684140D01*
X-6412625Y+31684140D01*
X-6428500Y+31699380D01*
X-6428500Y+31684140D02*
X-6333250Y+31775580D01*
X-6873000Y+31150000D02*
X-6746000Y+31150000D01*
X-6746000Y+31086500D02*
X-6238000Y+31086500D01*
X-6238000Y+31213500D01*
X-6746000Y+31213500D01*
X-6746000Y+31086500D01*
X-6238000Y+31150000D02*
X-6111000Y+31150000D01*
X-6682500Y+31254140D02*
X-6682500Y+31345580D01*
X-6603125Y+31345580D01*
X-6587250Y+31330340D01*
X-6587250Y+31315100D01*
X-6603125Y+31299860D01*
X-6682500Y+31299860D01*
X-6603125Y+31299860D02*
X-6587250Y+31284620D01*
X-6587250Y+31254140D01*
X-6523750Y+31315100D02*
X-6492000Y+31345580D01*
X-6492000Y+31254140D01*
X-6396750Y+31315100D02*
X-6365000Y+31345580D01*
X-6365000Y+31254140D01*
X-6863000Y+30740000D02*
X-6736000Y+30740000D01*
X-6736000Y+30676500D02*
X-6228000Y+30676500D01*
X-6228000Y+30803500D01*
X-6736000Y+30803500D01*
X-6736000Y+30676500D01*
X-6228000Y+30740000D02*
X-6101000Y+30740000D01*
X-6672500Y+30844140D02*
X-6672500Y+30935580D01*
X-6593125Y+30935580D01*
X-6577250Y+30920340D01*
X-6577250Y+30905100D01*
X-6593125Y+30889860D01*
X-6672500Y+30889860D01*
X-6593125Y+30889860D02*
X-6577250Y+30874620D01*
X-6577250Y+30844140D01*
X-6513750Y+30905100D02*
X-6482000Y+30935580D01*
X-6482000Y+30844140D01*
X-6402625Y+30920340D02*
X-6386750Y+30935580D01*
X-6339125Y+30935580D01*
X-6323250Y+30920340D01*
X-6323250Y+30905100D01*
X-6339125Y+30889860D01*
X-6386750Y+30889860D01*
X-6402625Y+30874620D01*
X-6402625Y+30844140D01*
X-6323250Y+30844140D01*
X-4470000Y+23016160D02*
X-4470000Y+23199040D01*
X-4368400Y+23199040D01*
X-4317600Y+23138080D01*
X-4317600Y+23077120D01*
X-4368400Y+23016160D01*
X-4470000Y+23016160D01*
X-4266800Y+23077120D02*
X-4114400Y+23077120D01*
X-4114400Y+23107600D01*
X-4139800Y+23138080D01*
X-4241400Y+23138080D01*
X-4266800Y+23107600D01*
X-4266800Y+23046640D01*
X-4241400Y+23016160D01*
X-4139800Y+23016160D01*
X-3936600Y+23138080D02*
X-4038200Y+23138080D01*
X-4063600Y+23107600D01*
X-4038200Y+23077120D01*
X-3936600Y+23077120D01*
X-3911200Y+23046640D01*
X-3936600Y+23016160D01*
X-4063600Y+23016160D01*
X-3784200Y+23138080D02*
X-3784200Y+23016160D01*
X-3784200Y+23199040D02*
X-3784200Y+23199040D01*
X-3504800Y+23107600D02*
X-3530200Y+23138080D01*
X-3631800Y+23138080D01*
X-3657200Y+23107600D01*
X-3657200Y+23077120D01*
X-3631800Y+23046640D01*
X-3530200Y+23046640D01*
X-3504800Y+23077120D01*
X-3504800Y+23138080D02*
X-3504800Y+23016160D01*
X-3530200Y+22985680D01*
X-3657200Y+22985680D01*
X-3454000Y+23016160D02*
X-3454000Y+23138080D01*
X-3454000Y+23107600D02*
X-3428600Y+23138080D01*
X-3327000Y+23138080D01*
X-3301600Y+23107600D01*
X-3301600Y+23016160D01*
X-3250800Y+23077120D02*
X-3098400Y+23077120D01*
X-3098400Y+23107600D01*
X-3123800Y+23138080D01*
X-3225400Y+23138080D01*
X-3250800Y+23107600D01*
X-3250800Y+23046640D01*
X-3225400Y+23016160D01*
X-3123800Y+23016160D01*
X-2895200Y+23107600D02*
X-2920600Y+23138080D01*
X-3022200Y+23138080D01*
X-3047600Y+23107600D01*
X-3047600Y+23046640D01*
X-3022200Y+23016160D01*
X-2920600Y+23016160D01*
X-2895200Y+23046640D01*
X-2895200Y+23016160D02*
X-2895200Y+23199040D01*
X-2641200Y+23016160D02*
X-2641200Y+23199040D01*
X-2514200Y+23199040D01*
X-2488800Y+23168560D01*
X-2488800Y+23138080D01*
X-2514200Y+23107600D01*
X-2488800Y+23077120D01*
X-2488800Y+23046640D01*
X-2514200Y+23016160D01*
X-2641200Y+23016160D01*
X-2641200Y+23107600D02*
X-2514200Y+23107600D01*
X-2438000Y+23138080D02*
X-2438000Y+23077120D01*
X-2412600Y+23046640D01*
X-2311000Y+23046640D01*
X-2285600Y+23077120D01*
X-2285600Y+23138080D02*
X-2285600Y+23016160D01*
X-2311000Y+22985680D01*
X-2438000Y+22985680D01*
X-2031600Y+23016160D02*
X-2031600Y+23138080D01*
X-1980800Y+23199040D01*
X-1930000Y+23199040D01*
X-1879200Y+23138080D01*
X-1879200Y+23016160D01*
X-2031600Y+23077120D02*
X-1879200Y+23077120D01*
X-1828400Y+23199040D02*
X-1828400Y+23016160D01*
X-1828400Y+23046640D02*
X-1676000Y+23138080D01*
X-1777600Y+23077120D02*
X-1676000Y+23016160D01*
X-1599800Y+23138080D02*
X-1498200Y+23138080D01*
X-1472800Y+23107600D01*
X-1472800Y+23016160D01*
X-1599800Y+23016160D01*
X-1625200Y+23046640D01*
X-1599800Y+23077120D01*
X-1472800Y+23077120D01*
X-1295000Y+23138080D02*
X-1396600Y+23138080D01*
X-1422000Y+23107600D01*
X-1396600Y+23077120D01*
X-1295000Y+23077120D01*
X-1269600Y+23046640D01*
X-1295000Y+23016160D01*
X-1422000Y+23016160D01*
X-1066400Y+23016160D02*
X-1066400Y+23107600D01*
X-1091800Y+23138080D01*
X-1193400Y+23138080D01*
X-1218800Y+23107600D01*
X-1218800Y+23199040D02*
X-1218800Y+23016160D01*
X-812400Y+23016160D02*
X-812400Y+23199040D01*
X-685400Y+23199040D01*
X-660000Y+23168560D01*
X-660000Y+23138080D01*
X-685400Y+23107600D01*
X-660000Y+23077120D01*
X-660000Y+23046640D01*
X-685400Y+23016160D01*
X-812400Y+23016160D01*
X-812400Y+23107600D02*
X-685400Y+23107600D01*
X-583800Y+23138080D02*
X-482200Y+23138080D01*
X-456800Y+23107600D01*
X-456800Y+23016160D01*
X-583800Y+23016160D01*
X-609200Y+23046640D01*
X-583800Y+23077120D01*
X-456800Y+23077120D01*
X-406000Y+23016160D02*
X-406000Y+23138080D01*
X-406000Y+23107600D02*
X-380600Y+23138080D01*
X-279000Y+23138080D01*
X-253600Y+23107600D01*
X-202800Y+23016160D02*
X-202800Y+23138080D01*
X-202800Y+23107600D02*
X-177400Y+23138080D01*
X-126600Y+23077120D01*
X-75800Y+23138080D01*
X-50400Y+23107600D01*
X-50400Y+23016160D01*
X+25800Y+23138080D02*
X+127400Y+23138080D01*
X+152800Y+23107600D01*
X+152800Y+23016160D01*
X+25800Y+23016160D01*
X+400Y+23046640D01*
X+25800Y+23077120D01*
X+152800Y+23077120D01*
X+203600Y+23016160D02*
X+203600Y+23138080D01*
X+203600Y+23107600D02*
X+229000Y+23138080D01*
X+330600Y+23138080D01*
X+356000Y+23107600D01*
X+356000Y+23016160D01*
D27*
X-15320000Y+23625000D02*
X-14660000Y+23625000D01*
X-14660000Y+24895000D01*
X-15320000Y+24895000D01*
X-15320000Y+23625000D01*
D29*
X-14990000Y+24930000D02*
X-14997109Y+24932891D01*
X-15000000Y+24940000D01*
X-14997109Y+24947109D01*
X-14990000Y+24950000D01*
X-14982891Y+24947109D01*
X-14980000Y+24940000D01*
X-14982891Y+24932891D01*
X-14990000Y+24930000D01*
D28*
X-14624520Y+24160500D02*
X-14548320Y+24160500D01*
X-14533080Y+24176375D01*
X-14533080Y+24239875D01*
X-14548320Y+24255750D01*
X-14624520Y+24255750D01*
X-14594040Y+24319250D02*
X-14624520Y+24351000D01*
X-14533080Y+24351000D01*
X-19200000Y+21950000D02*
X+1400000Y+21950000D01*
X+1400000Y+37200000D01*
X-19200000Y+37200000D01*
X-19200000Y+21950000D01*
X-2950000Y+26849200D02*
X-2797600Y+26696800D01*
X-2950000Y+26696800D02*
X-2797600Y+26849200D01*
X-2746800Y+26849200D02*
X-2594400Y+26849200D01*
X-2670600Y+26849200D02*
X-2670600Y+26696800D01*
X-2543600Y+26696800D02*
X-2543600Y+26798400D01*
X-2492800Y+26849200D01*
X-2442000Y+26849200D01*
X-2391200Y+26798400D01*
X-2391200Y+26696800D01*
X-2543600Y+26747600D02*
X-2391200Y+26747600D01*
X-2340400Y+26849200D02*
X-2340400Y+26696800D01*
X-2188000Y+26696800D01*
M02*
