G04 PROTEUS GERBER X2 FILE*
%TF.GenerationSoftware,Labcenter,Proteus,8.11-SP0-Build30052*%
%TF.CreationDate,2021-11-27T06:41:44+00:00*%
%TF.FileFunction,Copper,L1,Top*%
%TF.FilePolarity,Positive*%
%TF.Part,Single*%
%TF.SameCoordinates,{e397242e-da90-49e6-b63e-a6f9376aac74}*%
%FSLAX45Y45*%
%MOMM*%
G01*
%TA.AperFunction,Conductor*%
%ADD10C,0.254000*%
%TA.AperFunction,ViaPad*%
%ADD11C,0.762000*%
%TA.AperFunction,OtherPad,Unknown*%
%ADD12C,0.762000*%
%ADD13C,1.270000*%
%TA.AperFunction,ComponentPad*%
%ADD14C,1.500000*%
%TA.AperFunction,ComponentPad*%
%ADD15R,1.270000X1.270000*%
%ADD16C,1.270000*%
%TA.AperFunction,WasherPad*%
%ADD17R,1.180000X1.180000*%
%TA.AperFunction,ComponentPad*%
%ADD18C,1.180000*%
%TA.AperFunction,WasherPad*%
%ADD19R,1.130000X1.130000*%
%TA.AperFunction,ComponentPad*%
%ADD70C,1.130000*%
%TA.AperFunction,ComponentPad*%
%ADD71C,2.250000*%
%TA.AperFunction,ComponentPad*%
%ADD20R,2.032000X2.032000*%
%ADD21C,1.778000*%
%ADD22C,2.286000*%
%TA.AperFunction,WasherPad*%
%ADD23C,1.397000*%
%TA.AperFunction,ComponentPad*%
%ADD24C,2.780000*%
%TA.AperFunction,OtherPad,Unknown*%
%ADD25C,1.778000*%
%TA.AperFunction,Profile*%
%ADD26C,0.203200*%
%TD.AperFunction*%
D10*
X-880000Y+28152000D02*
X-1415737Y+28687737D01*
X-1697737Y+28687737D01*
X-2390000Y+29380000D01*
X-626000Y+28152000D02*
X-1660734Y+29186734D01*
X-1942734Y+29186734D01*
X-2136000Y+29380000D01*
X-14384000Y+29380000D02*
X-14109500Y+29654500D01*
X-12954000Y+29654500D01*
X-12220000Y+24542000D02*
X-11653000Y+24542000D01*
X-11493500Y+24701500D01*
X-11892000Y+29370000D02*
X-12176500Y+29654500D01*
X-12954000Y+29654500D01*
X-8892000Y+29380000D02*
X-9039500Y+29527500D01*
X-11226500Y+29527500D01*
X-11384000Y+29370000D01*
X-11000000Y+35940000D02*
X-11253000Y+35687000D01*
X-15153000Y+35687000D01*
X-15410000Y+35944000D01*
X-9000000Y+35944000D02*
X-8870000Y+35814000D01*
X-7239000Y+35814000D01*
X-7113000Y+35940000D01*
X-4610000Y+35940000D01*
X-11000000Y+35940000D02*
X-10872000Y+36068000D01*
X-9271000Y+36068000D01*
X-9147000Y+35944000D01*
X-9000000Y+35944000D01*
X-15410000Y+35944000D02*
X-15684500Y+35944000D01*
X-15941500Y+35687000D01*
X-17147000Y+35687000D01*
X-17400000Y+35940000D01*
X-4892000Y+29380000D02*
X-5103000Y+29591000D01*
X-8173000Y+29591000D01*
X-8384000Y+29380000D01*
X-14892000Y+29380000D02*
X-15039500Y+29527500D01*
X-17236500Y+29527500D01*
X-17384000Y+29380000D01*
X-9880000Y+24532000D02*
X-9715500Y+24532000D01*
X-9482500Y+24765000D01*
X-7743000Y+24765000D01*
X-7510000Y+24532000D01*
X-2600000Y+35940000D02*
X-2791500Y+36131500D01*
X-4418500Y+36131500D01*
X-4610000Y+35940000D01*
X-1887000Y+24609000D02*
X-1093000Y+24609000D01*
X-17638000Y+29380000D02*
X-17384000Y+29380000D01*
X-1628000Y+29380000D02*
X-1374000Y+29380000D01*
X-11892000Y+29370000D02*
X-11638000Y+29370000D01*
X-8638000Y+29380000D02*
X-8384000Y+29380000D01*
X-11638000Y+29370000D02*
X-11384000Y+29370000D01*
X-4892000Y+29380000D02*
X-4638000Y+29380000D01*
X-4384000Y+29380000D01*
X-8892000Y+29380000D02*
X-8638000Y+29380000D01*
X-17638000Y+29380000D02*
X-17892000Y+29380000D01*
X-1882000Y+29380000D02*
X-1628000Y+29380000D01*
X-14638000Y+29380000D02*
X-14384000Y+29380000D01*
X-14892000Y+29380000D02*
X-14638000Y+29380000D01*
X-3096300Y+25869000D02*
X-2930300Y+26035000D01*
X-2476500Y+26035000D01*
X-1778000Y+26035000D02*
X-2476500Y+26035000D01*
X-1524000Y+26035000D02*
X-1778000Y+26035000D01*
X-1093000Y+25879000D02*
X-1249000Y+26035000D01*
X-1524000Y+26035000D01*
X-1887000Y+25879000D02*
X-1589518Y+25879000D01*
X-1491518Y+25781000D01*
X-1491518Y+25515518D01*
X-1093000Y+25117000D01*
X-5524500Y+27876500D02*
X-4135500Y+27876500D01*
X-3870000Y+28142000D01*
X-5270500Y+28448000D02*
X-3922000Y+28448000D01*
X-3616000Y+28142000D01*
X-5143500Y+28321000D02*
X-7048500Y+28321000D01*
X-7683500Y+27686000D01*
X-8763000Y+27686000D01*
X-7870000Y+25880000D02*
X-7976650Y+25773350D01*
X-8945850Y+25773350D01*
X-9017000Y+25844500D01*
X-9017000Y+26085800D01*
X-8953500Y+26149300D01*
X-8331200Y+26149300D01*
X-8255000Y+26225500D01*
X-8255000Y+26733500D01*
X-8318500Y+26797000D01*
X-8953500Y+26797000D01*
X-9017000Y+26733500D01*
X-9017000Y+26598850D01*
X-9080500Y+26535350D01*
X-12755850Y+26535350D01*
X-12827000Y+26606500D01*
X-4886000Y+27380000D02*
X-4632000Y+27380000D01*
X-11747500Y+30924500D02*
X-11938000Y+30924500D01*
X-12001500Y+30988000D01*
X-12001500Y+31242000D01*
X-13652500Y+31242000D01*
X-13716000Y+31305500D01*
X-13716000Y+31734000D01*
X-13510000Y+31940000D01*
X-11747500Y+30924500D02*
X-6158500Y+30924500D01*
X-5974000Y+30740000D01*
X-9140000Y+27380000D02*
X-9342000Y+27178000D01*
X-10922000Y+27178000D01*
X-10985500Y+27241500D01*
X-10985500Y+27495500D01*
X-11049000Y+27559000D01*
X-11430000Y+27559000D01*
X-11493500Y+27495500D01*
X-11493500Y+27228800D01*
X-11557000Y+27165300D01*
X-13893800Y+27165300D01*
X-13970000Y+27241500D01*
X-13970000Y+27495500D01*
X-14033500Y+27559000D01*
X-14414500Y+27559000D01*
X-14478000Y+27495500D01*
X-14478000Y+27241500D01*
X-7870000Y+28142000D02*
X-8550631Y+28822631D01*
X-8842631Y+28822631D01*
X-9400000Y+29380000D01*
X-7616000Y+28142000D02*
X-8660594Y+29186594D01*
X-8952594Y+29186594D01*
X-9146000Y+29380000D01*
X-14986000Y+26225500D02*
X-8509000Y+26225500D01*
X-9588500Y+31750000D02*
X-13250000Y+31750000D01*
X-13510000Y+31490000D01*
X-9588500Y+31750000D02*
X-6154000Y+31750000D01*
X-5984000Y+31580000D01*
X-11632000Y+28142000D02*
X-12140000Y+27634000D01*
X-12140000Y+27380000D01*
X-12400000Y+29370000D02*
X-11917570Y+28887570D01*
X-10992070Y+28887570D01*
X-10870000Y+28765500D01*
X-10870000Y+28142000D01*
X-14097000Y+26035000D02*
X-12001500Y+26035000D01*
X-12509500Y+28384500D02*
X-12509500Y+29464000D01*
X-12446000Y+29527500D01*
X-12303500Y+29527500D01*
X-12146000Y+29370000D01*
X-12509500Y+28384500D02*
X-11049000Y+28384500D01*
X-10985500Y+28321000D01*
X-10985500Y+28003500D01*
X-10922000Y+27940000D01*
X-10818000Y+27940000D01*
X-10616000Y+28142000D01*
X-12509500Y+28384500D02*
X-12573000Y+28321000D01*
X-13398500Y+28321000D01*
X-11886000Y+27380000D02*
X-12024500Y+27241500D01*
X-12700000Y+27241500D01*
X-12700000Y+26987500D02*
X-13970000Y+26987500D01*
X-11886000Y+27380000D02*
X-11632000Y+27380000D01*
X-14114000Y+26642000D02*
X-13951500Y+26479500D01*
X-13779500Y+26479500D01*
X-13716000Y+26543000D01*
X-13716000Y+26733500D01*
X-13652500Y+26797000D01*
X-12319000Y+26797000D01*
X-12255500Y+26733500D01*
X-13860000Y+28142000D02*
X-13860000Y+28901400D01*
X-13970000Y+29011400D01*
X-15031400Y+29011400D01*
X-15400000Y+29380000D01*
X-13860000Y+26642000D02*
X-14015000Y+26797000D01*
X-14467000Y+26797000D01*
X-14622000Y+26642000D01*
X-15146000Y+29380000D02*
X-14966616Y+29200616D01*
X-13723616Y+29200616D01*
X-13606000Y+29083000D01*
X-13606000Y+28142000D01*
X-17907000Y+26035000D02*
X-17653000Y+26289000D01*
X-15621000Y+26289000D01*
X-14368000Y+28142000D02*
X-14189000Y+28321000D01*
X-14033500Y+28321000D01*
X-13970000Y+28257500D01*
X-13970000Y+27788520D01*
X-13906500Y+27725020D01*
X-12978480Y+27725020D01*
X-12954000Y+27749500D01*
X-13906500Y+33528000D02*
X-14994000Y+33528000D01*
X-15126000Y+33660000D01*
X-13510000Y+31030000D02*
X-13758000Y+31030000D01*
X-13843000Y+31115000D01*
X-13843000Y+32131000D01*
X-13779500Y+32194500D01*
X-6178500Y+32194500D01*
X-5984000Y+32000000D01*
X-17448000Y+23934000D02*
X-17702000Y+24188000D01*
X-18210000Y+24188000D01*
X-14876000Y+27380000D02*
X-15014500Y+27241500D01*
X-16954500Y+27241500D01*
X-17018000Y+27305000D01*
X-17018000Y+27495500D01*
X-17081500Y+27559000D01*
X-17453000Y+27559000D01*
X-17632000Y+27380000D01*
X-17886000Y+27380000D01*
X-14876000Y+27380000D02*
X-14622000Y+27380000D01*
X-18140000Y+27380000D02*
X-18288000Y+27232000D01*
X-18288000Y+26543000D01*
X-18224500Y+26479500D01*
X-15038500Y+26479500D01*
X-14876000Y+26642000D01*
X-14650000Y+26416000D01*
X-8858000Y+26416000D01*
X-8632000Y+26642000D01*
X-18288000Y+28257500D02*
X-16985500Y+28257500D01*
X-16870000Y+28142000D01*
X-8886000Y+26642000D02*
X-8886000Y+26479500D01*
X-13443500Y+26479500D01*
X-13606000Y+26642000D01*
X-17378000Y+25880000D02*
X-17223000Y+26035000D01*
X-15684500Y+26035000D01*
X-15367000Y+26352500D01*
X-8667500Y+26352500D01*
X-8378000Y+26642000D01*
X-7000000Y+31150000D02*
X-6844500Y+31305500D01*
X+53500Y+31305500D01*
X+460000Y+31712000D01*
X-14478000Y+25717500D02*
X-11811000Y+25717500D01*
X-11747500Y+25781000D01*
X-11747500Y+26035000D01*
X-11684000Y+26098500D01*
X-9334500Y+26098500D01*
X-15557500Y+25717500D02*
X-14478000Y+25717500D01*
X-12509500Y+30797500D02*
X-15811500Y+30797500D01*
X-10492000Y+35164000D02*
X-10492000Y+33640000D01*
X-2082000Y+35164000D02*
X-2082000Y+35442000D01*
X-1584000Y+35940000D01*
X-3883700Y+25361000D02*
X-3781200Y+25463500D01*
X-2315000Y+25463500D01*
X-2222500Y+25371000D01*
X-1887000Y+25371000D01*
X-5510000Y+25070000D02*
X-4887500Y+24447500D01*
X-3198800Y+24447500D01*
X-3096300Y+24345000D01*
X-15853000Y+24828500D02*
X-15558500Y+24828500D01*
X-14990000Y+24260000D01*
X-15853000Y+24828500D02*
X-15853000Y+24929000D01*
X-15875000Y+24828500D02*
X-18088500Y+24828500D01*
X-18210000Y+24950000D01*
X-15875000Y+24828500D02*
X-15853000Y+24828500D01*
X-12319000Y+32512000D02*
X-32000Y+32512000D01*
X+216000Y+32760000D01*
X-11124000Y+28142000D02*
X-11239500Y+28257500D01*
X-12319000Y+28257500D01*
X-12382500Y+28194000D01*
X-12382500Y+27443500D01*
X-12446000Y+27380000D01*
X-13606000Y+27380000D01*
X-16700500Y+23812500D02*
X-15811500Y+23812500D01*
X-15789000Y+23790000D01*
X-14990000Y+23790000D01*
X-16764000Y+23368000D02*
X-16764000Y+23749000D01*
X-16700500Y+23812500D01*
X-17448000Y+23426000D02*
X-17326500Y+23304500D01*
X-16827500Y+23304500D01*
X-16764000Y+23368000D01*
X-16764000Y+23268000D01*
X-16647000Y+23151000D01*
X-1887000Y+24101000D02*
X-1725500Y+23939500D01*
X-1254500Y+23939500D01*
X-1093000Y+24101000D01*
X-1896000Y+27390000D02*
X-2044500Y+27241500D01*
X-3477500Y+27241500D01*
X-3616000Y+27380000D01*
X-14114000Y+28142000D02*
X-14443000Y+27813000D01*
X-16183000Y+27813000D01*
X-16616000Y+27380000D01*
X-8886000Y+27380000D02*
X-9001500Y+27495500D01*
X-10500500Y+27495500D01*
X-10616000Y+27380000D01*
X-8632000Y+27380000D02*
X-8516500Y+27495500D01*
X-7985500Y+27495500D01*
X-7870000Y+27380000D01*
X-16647000Y+24421000D02*
X-16764000Y+24304000D01*
X-16764000Y+23876000D01*
X-16700500Y+23812500D01*
X-8886000Y+27380000D02*
X-8632000Y+27380000D01*
X-16870000Y+27380000D02*
X-16616000Y+27380000D01*
X-13860000Y+27380000D02*
X-13606000Y+27380000D01*
X-7870000Y+27380000D02*
X-7616000Y+27380000D01*
X-880000Y+27390000D02*
X-626000Y+27390000D01*
X-1896000Y+27390000D02*
X-1642000Y+27390000D01*
X-3870000Y+27380000D02*
X-3616000Y+27380000D01*
X-4254500Y+27622500D02*
X-1366500Y+27622500D01*
X-1134000Y+27390000D01*
X-15400000Y+30142000D02*
X-15230000Y+29972000D01*
X-12573000Y+29972000D01*
X-12509500Y+30035500D01*
X-14114000Y+27178000D02*
X-14431500Y+26860500D01*
X-15176500Y+26860500D01*
X-5400000Y+30142000D02*
X-5293500Y+30035500D01*
X-2496500Y+30035500D01*
X-2390000Y+30142000D01*
X-12140000Y+26924000D02*
X-12330500Y+27114500D01*
X-14050500Y+27114500D01*
X-14114000Y+27178000D01*
X-9400000Y+30142000D02*
X-9570000Y+29972000D01*
X-12446000Y+29972000D01*
X-12509500Y+30035500D01*
X-12400000Y+30132000D02*
X-12509500Y+30132000D01*
X-12509500Y+30035500D01*
X-15176500Y+26860500D02*
X-15176500Y+26797000D01*
X-15125700Y+26746200D01*
X-15125700Y+26646300D01*
X-15130000Y+26642000D01*
X-9144000Y+26924000D02*
X-9140000Y+26920000D01*
X-9140000Y+26642000D01*
X-8124000Y+27051000D02*
X-8060500Y+26987500D01*
X-5842000Y+26987500D01*
X-5207000Y+27622500D01*
X-4254500Y+27622500D01*
X-5400000Y+30142000D02*
X-5506500Y+30035500D01*
X-9293500Y+30035500D01*
X-9400000Y+30142000D01*
X-15400000Y+30142000D02*
X-15547500Y+30289500D01*
X-18252500Y+30289500D01*
X-18400000Y+30142000D01*
X-15176500Y+26860500D02*
X-15240000Y+26797000D01*
X-17208500Y+26797000D01*
X-17272000Y+26860500D01*
X-18140000Y+26642000D02*
X-17921500Y+26860500D01*
X-17272000Y+26860500D01*
X-17124000Y+27008500D01*
X-17124000Y+27380000D01*
X-11124000Y+27051000D02*
X-9271000Y+27051000D01*
X-9144000Y+26924000D01*
X-9080500Y+26987500D01*
X-8187500Y+26987500D01*
X-8124000Y+27051000D01*
X-12140000Y+26924000D02*
X-11251000Y+26924000D01*
X-11124000Y+27051000D01*
X-8124000Y+27051000D02*
X-8124000Y+27380000D01*
X-11124000Y+27051000D02*
X-11124000Y+27380000D01*
X-12140000Y+26642000D02*
X-12140000Y+26924000D01*
X-14114000Y+27178000D02*
X-14114000Y+27380000D01*
X-8886000Y+25880000D02*
X-8667500Y+26098500D01*
X-6850000Y+26098500D01*
X-6348500Y+26600000D01*
X-5016500Y+26600000D01*
X-5016500Y+27432000D01*
X-4953000Y+27495500D01*
X-2255500Y+27495500D01*
X-2150000Y+27390000D01*
X-7870000Y+25880000D02*
X-7750000Y+26000000D01*
X-6785000Y+26000000D01*
X-6285000Y+26500000D01*
X-4886000Y+26500000D01*
X-4886000Y+27380000D01*
X-6650000Y+25717500D02*
X-6117500Y+26250000D01*
X-4381500Y+26250000D01*
X-1388000Y+28152000D02*
X-1016000Y+27780000D01*
X-1016000Y+27114500D01*
X-1079500Y+27051000D01*
X-4318000Y+27051000D01*
X-4381500Y+26987500D01*
X-4381500Y+26250000D01*
X-6650000Y+25717500D02*
X-9140000Y+25717500D01*
X-9140000Y+25880000D01*
X-3870000Y+27380000D02*
X-4050000Y+27200000D01*
X-4419199Y+27200000D01*
X-4568199Y+27051000D01*
X-4568199Y+26400000D01*
X-6180000Y+26400000D01*
X-6700000Y+25880000D01*
X-7616000Y+25880000D01*
X-3096300Y+24599000D02*
X-3400000Y+24599000D01*
X-3400000Y+25250000D01*
X-1093000Y+24355000D02*
X-1036500Y+24350000D01*
X-300000Y+24350000D01*
X-240000Y+24290000D01*
X-20000Y+24290000D01*
X-17448000Y+24950000D02*
X-16703500Y+24950000D01*
X-16647000Y+24929000D01*
X-5750000Y+24532000D02*
X-5068000Y+23850000D01*
X-200000Y+23850000D01*
X-20000Y+24030000D01*
X-20000Y+24290000D01*
X-10049500Y+24701500D02*
X-10049500Y+25700000D01*
X-9880000Y+24532000D02*
X-10049500Y+24701500D01*
X-11493500Y+24701500D01*
X-18140000Y+28142000D02*
X-18258000Y+28142000D01*
X-18550000Y+27850000D01*
X-18550000Y+25662000D01*
X-18415000Y+25527000D01*
X-11747500Y+25527000D01*
X-11632000Y+25642500D01*
X-11632000Y+25880000D01*
X-18050000Y+26250000D02*
X-18400000Y+25900000D01*
X-6990000Y+30400000D02*
X-750000Y+30400000D01*
X-226000Y+30400000D02*
X-750000Y+30400000D01*
X-626000Y+27390000D02*
X-626000Y+24863000D01*
X-1093000Y+24863000D02*
X-626000Y+24863000D01*
X-500000Y+24863000D01*
X-127000Y+24490000D01*
X-20000Y+24490000D01*
X-18800000Y+28500000D02*
X-17100000Y+28500000D01*
X-16616000Y+28142000D02*
X-16616000Y+28166000D01*
X-17100000Y+28650000D01*
X-17416000Y+28650000D01*
X-18146000Y+29380000D01*
X-2450000Y+26450000D02*
X-2450000Y+26200000D01*
X-4494000Y+25070000D02*
X-4064000Y+25500000D01*
X-4064000Y+26200000D01*
X-2450000Y+26200000D01*
X-2050000Y+26200000D01*
X-1820000Y+26430000D01*
X-3272000Y+26440000D02*
X-3272000Y+26450000D01*
X-2750000Y+26450000D01*
D11*
X-11493500Y+24701500D03*
X-8763000Y+27686000D03*
X-5143500Y+28321000D03*
X-12827000Y+26606500D03*
X-12001500Y+31242000D03*
X-14478000Y+27241500D03*
X-8509000Y+26225500D03*
X-14986000Y+26225500D03*
X-9588500Y+31750000D03*
X-12001500Y+26035000D03*
X-14097000Y+26035000D03*
X-13398500Y+28321000D03*
X-13970000Y+26987500D03*
X-12700000Y+26987500D03*
X-12700000Y+27241500D03*
X-12255500Y+26733500D03*
X-15621000Y+26289000D03*
X-17907000Y+26035000D03*
X-12954000Y+27749500D03*
X-13906500Y+33528000D03*
X-18288000Y+28257500D03*
X-9334500Y+26098500D03*
X-14478000Y+25717500D03*
X-15557500Y+25717500D03*
X-15811500Y+30797500D03*
X-12509500Y+30797500D03*
X-12319000Y+32512000D03*
X-4254500Y+27622500D03*
X-5270500Y+28448000D03*
X-5524500Y+27876500D03*
X-3400000Y+25250000D03*
X-5750000Y+24532000D03*
X-10049500Y+25700000D03*
X-10049500Y+27050000D03*
X-18050000Y+26250000D03*
X-18400000Y+25900000D03*
X-6990000Y+30400000D03*
X-226000Y+30400000D03*
X-18800000Y+28500000D03*
X-17100000Y+28500000D03*
D12*
X+74000000Y+97000000D03*
D13*
X+105150000Y+98840000D03*
D14*
X-2590000Y+33640000D03*
X-2336000Y+33640000D03*
X-2082000Y+33640000D03*
X-1828000Y+33640000D03*
X-1574000Y+33640000D03*
X-1574000Y+35164000D03*
X-1828000Y+35164000D03*
X-2082000Y+35164000D03*
X-2336000Y+35164000D03*
X-2590000Y+35164000D03*
X-4590000Y+33650000D03*
X-4336000Y+33650000D03*
X-4082000Y+33650000D03*
X-3828000Y+33650000D03*
X-3574000Y+33650000D03*
X-3574000Y+35174000D03*
X-3828000Y+35174000D03*
X-4082000Y+35174000D03*
X-4336000Y+35174000D03*
X-4590000Y+35174000D03*
X-8990000Y+33640000D03*
X-8736000Y+33640000D03*
X-8482000Y+33640000D03*
X-8228000Y+33640000D03*
X-7974000Y+33640000D03*
X-7974000Y+35164000D03*
X-8228000Y+35164000D03*
X-8482000Y+35164000D03*
X-8736000Y+35164000D03*
X-8990000Y+35164000D03*
X-11000000Y+33640000D03*
X-10746000Y+33640000D03*
X-10492000Y+33640000D03*
X-10238000Y+33640000D03*
X-9984000Y+33640000D03*
X-9984000Y+35164000D03*
X-10238000Y+35164000D03*
X-10492000Y+35164000D03*
X-10746000Y+35164000D03*
X-11000000Y+35164000D03*
X-15380000Y+33660000D03*
X-15126000Y+33660000D03*
X-14872000Y+33660000D03*
X-14618000Y+33660000D03*
X-14364000Y+33660000D03*
X-14364000Y+35184000D03*
X-14618000Y+35184000D03*
X-14872000Y+35184000D03*
X-15126000Y+35184000D03*
X-15380000Y+35184000D03*
X-17380000Y+33650000D03*
X-17126000Y+33650000D03*
X-16872000Y+33650000D03*
X-16618000Y+33650000D03*
X-16364000Y+33650000D03*
X-16364000Y+35174000D03*
X-16618000Y+35174000D03*
X-16872000Y+35174000D03*
X-17126000Y+35174000D03*
X-17380000Y+35174000D03*
D15*
X-2150000Y+27390000D03*
D16*
X-1896000Y+27390000D03*
X-1642000Y+27390000D03*
X-1388000Y+27390000D03*
X-1134000Y+27390000D03*
X-880000Y+27390000D03*
X-626000Y+27390000D03*
X-626000Y+28152000D03*
X-880000Y+28152000D03*
X-1134000Y+28152000D03*
X-1388000Y+28152000D03*
X-1642000Y+28152000D03*
X-1896000Y+28152000D03*
X-2150000Y+28152000D03*
D15*
X-2390000Y+29380000D03*
D16*
X-2136000Y+29380000D03*
X-1882000Y+29380000D03*
X-1628000Y+29380000D03*
X-1374000Y+29380000D03*
X-1120000Y+29380000D03*
X-866000Y+29380000D03*
X-612000Y+29380000D03*
X-612000Y+30142000D03*
X-866000Y+30142000D03*
X-1120000Y+30142000D03*
X-1374000Y+30142000D03*
X-1628000Y+30142000D03*
X-1882000Y+30142000D03*
X-2136000Y+30142000D03*
X-2390000Y+30142000D03*
D15*
X-5140000Y+27380000D03*
D16*
X-4886000Y+27380000D03*
X-4632000Y+27380000D03*
X-4378000Y+27380000D03*
X-4124000Y+27380000D03*
X-3870000Y+27380000D03*
X-3616000Y+27380000D03*
X-3616000Y+28142000D03*
X-3870000Y+28142000D03*
X-4124000Y+28142000D03*
X-4378000Y+28142000D03*
X-4632000Y+28142000D03*
X-4886000Y+28142000D03*
X-5140000Y+28142000D03*
D15*
X-5400000Y+29380000D03*
D16*
X-5146000Y+29380000D03*
X-4892000Y+29380000D03*
X-4638000Y+29380000D03*
X-4384000Y+29380000D03*
X-4130000Y+29380000D03*
X-3876000Y+29380000D03*
X-3622000Y+29380000D03*
X-3622000Y+30142000D03*
X-3876000Y+30142000D03*
X-4130000Y+30142000D03*
X-4384000Y+30142000D03*
X-4638000Y+30142000D03*
X-4892000Y+30142000D03*
X-5146000Y+30142000D03*
X-5400000Y+30142000D03*
D15*
X-9140000Y+27380000D03*
D16*
X-8886000Y+27380000D03*
X-8632000Y+27380000D03*
X-8378000Y+27380000D03*
X-8124000Y+27380000D03*
X-7870000Y+27380000D03*
X-7616000Y+27380000D03*
X-7616000Y+28142000D03*
X-7870000Y+28142000D03*
X-8124000Y+28142000D03*
X-8378000Y+28142000D03*
X-8632000Y+28142000D03*
X-8886000Y+28142000D03*
X-9140000Y+28142000D03*
D15*
X-9400000Y+29380000D03*
D16*
X-9146000Y+29380000D03*
X-8892000Y+29380000D03*
X-8638000Y+29380000D03*
X-8384000Y+29380000D03*
X-8130000Y+29380000D03*
X-7876000Y+29380000D03*
X-7622000Y+29380000D03*
X-7622000Y+30142000D03*
X-7876000Y+30142000D03*
X-8130000Y+30142000D03*
X-8384000Y+30142000D03*
X-8638000Y+30142000D03*
X-8892000Y+30142000D03*
X-9146000Y+30142000D03*
X-9400000Y+30142000D03*
D15*
X-12140000Y+27380000D03*
D16*
X-11886000Y+27380000D03*
X-11632000Y+27380000D03*
X-11378000Y+27380000D03*
X-11124000Y+27380000D03*
X-10870000Y+27380000D03*
X-10616000Y+27380000D03*
X-10616000Y+28142000D03*
X-10870000Y+28142000D03*
X-11124000Y+28142000D03*
X-11378000Y+28142000D03*
X-11632000Y+28142000D03*
X-11886000Y+28142000D03*
X-12140000Y+28142000D03*
D15*
X-12400000Y+29370000D03*
D16*
X-12146000Y+29370000D03*
X-11892000Y+29370000D03*
X-11638000Y+29370000D03*
X-11384000Y+29370000D03*
X-11130000Y+29370000D03*
X-10876000Y+29370000D03*
X-10622000Y+29370000D03*
X-10622000Y+30132000D03*
X-10876000Y+30132000D03*
X-11130000Y+30132000D03*
X-11384000Y+30132000D03*
X-11638000Y+30132000D03*
X-11892000Y+30132000D03*
X-12146000Y+30132000D03*
X-12400000Y+30132000D03*
D15*
X-15130000Y+27380000D03*
D16*
X-14876000Y+27380000D03*
X-14622000Y+27380000D03*
X-14368000Y+27380000D03*
X-14114000Y+27380000D03*
X-13860000Y+27380000D03*
X-13606000Y+27380000D03*
X-13606000Y+28142000D03*
X-13860000Y+28142000D03*
X-14114000Y+28142000D03*
X-14368000Y+28142000D03*
X-14622000Y+28142000D03*
X-14876000Y+28142000D03*
X-15130000Y+28142000D03*
D15*
X-15400000Y+29380000D03*
D16*
X-15146000Y+29380000D03*
X-14892000Y+29380000D03*
X-14638000Y+29380000D03*
X-14384000Y+29380000D03*
X-14130000Y+29380000D03*
X-13876000Y+29380000D03*
X-13622000Y+29380000D03*
X-13622000Y+30142000D03*
X-13876000Y+30142000D03*
X-14130000Y+30142000D03*
X-14384000Y+30142000D03*
X-14638000Y+30142000D03*
X-14892000Y+30142000D03*
X-15146000Y+30142000D03*
X-15400000Y+30142000D03*
D15*
X-18140000Y+27380000D03*
D16*
X-17886000Y+27380000D03*
X-17632000Y+27380000D03*
X-17378000Y+27380000D03*
X-17124000Y+27380000D03*
X-16870000Y+27380000D03*
X-16616000Y+27380000D03*
X-16616000Y+28142000D03*
X-16870000Y+28142000D03*
X-17124000Y+28142000D03*
X-17378000Y+28142000D03*
X-17632000Y+28142000D03*
X-17886000Y+28142000D03*
X-18140000Y+28142000D03*
D15*
X-18400000Y+29380000D03*
D16*
X-18146000Y+29380000D03*
X-17892000Y+29380000D03*
X-17638000Y+29380000D03*
X-17384000Y+29380000D03*
X-17130000Y+29380000D03*
X-16876000Y+29380000D03*
X-16622000Y+29380000D03*
X-16622000Y+30142000D03*
X-16876000Y+30142000D03*
X-17130000Y+30142000D03*
X-17384000Y+30142000D03*
X-17638000Y+30142000D03*
X-17892000Y+30142000D03*
X-18146000Y+30142000D03*
X-18400000Y+30142000D03*
D15*
X-18140000Y+25880000D03*
D16*
X-17886000Y+25880000D03*
X-17632000Y+25880000D03*
X-17378000Y+25880000D03*
X-17124000Y+25880000D03*
X-16870000Y+25880000D03*
X-16616000Y+25880000D03*
X-16616000Y+26642000D03*
X-16870000Y+26642000D03*
X-17124000Y+26642000D03*
X-17378000Y+26642000D03*
X-17632000Y+26642000D03*
X-17886000Y+26642000D03*
X-18140000Y+26642000D03*
D15*
X-9140000Y+25880000D03*
D16*
X-8886000Y+25880000D03*
X-8632000Y+25880000D03*
X-8378000Y+25880000D03*
X-8124000Y+25880000D03*
X-7870000Y+25880000D03*
X-7616000Y+25880000D03*
X-7616000Y+26642000D03*
X-7870000Y+26642000D03*
X-8124000Y+26642000D03*
X-8378000Y+26642000D03*
X-8632000Y+26642000D03*
X-8886000Y+26642000D03*
X-9140000Y+26642000D03*
D15*
X-15130000Y+25880000D03*
D16*
X-14876000Y+25880000D03*
X-14622000Y+25880000D03*
X-14368000Y+25880000D03*
X-14114000Y+25880000D03*
X-13860000Y+25880000D03*
X-13606000Y+25880000D03*
X-13606000Y+26642000D03*
X-13860000Y+26642000D03*
X-14114000Y+26642000D03*
X-14368000Y+26642000D03*
X-14622000Y+26642000D03*
X-14876000Y+26642000D03*
X-15130000Y+26642000D03*
D15*
X-12140000Y+25880000D03*
D16*
X-11886000Y+25880000D03*
X-11632000Y+25880000D03*
X-11378000Y+25880000D03*
X-11124000Y+25880000D03*
X-10870000Y+25880000D03*
X-10616000Y+25880000D03*
X-10616000Y+26642000D03*
X-10870000Y+26642000D03*
X-11124000Y+26642000D03*
X-11378000Y+26642000D03*
X-11632000Y+26642000D03*
X-11886000Y+26642000D03*
X-12140000Y+26642000D03*
D17*
X-3883700Y+25869000D03*
D18*
X-3883700Y+25615000D03*
X-3883700Y+25361000D03*
X-3883700Y+25107000D03*
X-3883700Y+24853000D03*
X-3883700Y+24599000D03*
X-3883700Y+24345000D03*
X-3883700Y+24091000D03*
X-3096300Y+24091000D03*
X-3096300Y+24345000D03*
X-3096300Y+24599000D03*
X-3096300Y+24853000D03*
X-3096300Y+25107000D03*
X-3096300Y+25361000D03*
X-3096300Y+25615000D03*
X-3096300Y+25869000D03*
D19*
X-1887000Y+25879000D03*
D70*
X-1887000Y+25625000D03*
X-1887000Y+25371000D03*
X-1887000Y+25117000D03*
X-1887000Y+24863000D03*
X-1887000Y+24609000D03*
X-1887000Y+24355000D03*
X-1887000Y+24101000D03*
X-1093000Y+24101000D03*
X-1093000Y+24355000D03*
X-1093000Y+24609000D03*
X-1093000Y+24863000D03*
X-1093000Y+25117000D03*
X-1093000Y+25371000D03*
X-1093000Y+25625000D03*
X-1093000Y+25879000D03*
D71*
X-8780000Y+23770000D03*
X-7510000Y+23770000D03*
X-7510000Y+24532000D03*
X-8780000Y+24532000D03*
X-11150000Y+23770000D03*
X-9880000Y+23770000D03*
X-9880000Y+24532000D03*
X-11150000Y+24532000D03*
X-13490000Y+23780000D03*
X-12220000Y+23780000D03*
X-12220000Y+24542000D03*
X-13490000Y+24542000D03*
D15*
X-18210000Y+24950000D03*
D16*
X-18210000Y+24696000D03*
X-18210000Y+24442000D03*
X-18210000Y+24188000D03*
X-18210000Y+23934000D03*
X-18210000Y+23680000D03*
X-18210000Y+23426000D03*
X-18210000Y+23172000D03*
X-17448000Y+23172000D03*
X-17448000Y+23426000D03*
X-17448000Y+23680000D03*
X-17448000Y+23934000D03*
X-17448000Y+24188000D03*
X-17448000Y+24442000D03*
X-17448000Y+24696000D03*
X-17448000Y+24950000D03*
D19*
X-16647000Y+24929000D03*
D70*
X-16647000Y+24675000D03*
X-16647000Y+24421000D03*
X-16647000Y+24167000D03*
X-16647000Y+23913000D03*
X-16647000Y+23659000D03*
X-16647000Y+23405000D03*
X-16647000Y+23151000D03*
X-15853000Y+23151000D03*
X-15853000Y+23405000D03*
X-15853000Y+23659000D03*
X-15853000Y+23913000D03*
X-15853000Y+24167000D03*
X-15853000Y+24421000D03*
X-15853000Y+24675000D03*
X-15853000Y+24929000D03*
D20*
X-470000Y+34840000D03*
X-216000Y+34840000D03*
X-480000Y+33810000D03*
X-226000Y+33810000D03*
D71*
X-810000Y+30950000D03*
X+460000Y+30950000D03*
X+460000Y+31712000D03*
X-810000Y+31712000D03*
D21*
X-5510000Y+26000000D03*
X-4494000Y+26000000D03*
X-5510000Y+25550000D03*
X-4494000Y+25550000D03*
X-5510000Y+25070000D03*
X-4494000Y+25070000D03*
X-3780000Y+26440000D03*
X-3272000Y+26440000D03*
X-1820000Y+26430000D03*
X-1312000Y+26430000D03*
X-2600000Y+35940000D03*
X-1584000Y+35940000D03*
X-17400000Y+35940000D03*
X-16384000Y+35940000D03*
X-11000000Y+35940000D03*
X-9984000Y+35940000D03*
D22*
X-12494000Y+31940000D03*
X-13510000Y+31940000D03*
X-12494000Y+31490000D03*
X-13510000Y+31490000D03*
X-12494000Y+31030000D03*
X-13510000Y+31030000D03*
X-12494000Y+30560000D03*
X-13510000Y+30560000D03*
D21*
X-15410000Y+35944000D03*
X-14394000Y+35944000D03*
X-9000000Y+35944000D03*
X-7984000Y+35944000D03*
X-4610000Y+35940000D03*
X-3594000Y+35940000D03*
X-800000Y+32760000D03*
X+216000Y+32760000D03*
D23*
X-20000Y+24290000D03*
X-20000Y+24490000D03*
D21*
X-7000000Y+32000000D03*
X-5984000Y+32000000D03*
X-7000000Y+31580000D03*
X-5984000Y+31580000D03*
X-7000000Y+31150000D03*
X-5984000Y+31150000D03*
X-6990000Y+30740000D03*
X-5974000Y+30740000D03*
D24*
X-14990000Y+24730000D03*
X-14990000Y+24260000D03*
X-14990000Y+23790000D03*
D13*
X-4100000Y+53400000D03*
D25*
X-2450000Y+26450000D03*
X-2750000Y+26450000D03*
D26*
X-19350000Y+21790000D02*
X+1550000Y+21790000D01*
X+1550000Y+37360000D01*
X-19350000Y+37360000D01*
X-19350000Y+21790000D01*
M02*
