G04 PROTEUS GERBER X2 FILE*
%TF.GenerationSoftware,Labcenter,Proteus,8.11-SP0-Build30052*%
%TF.CreationDate,2021-11-27T06:41:44+00:00*%
%TF.FileFunction,Soldermask,Top*%
%TF.FilePolarity,Negative*%
%TF.Part,Single*%
%TF.SameCoordinates,{e397242e-da90-49e6-b63e-a6f9376aac74}*%
%FSLAX45Y45*%
%MOMM*%
G01*
%TA.AperFunction,Material*%
%ADD30C,1.016000*%
%ADD31C,1.524000*%
%TA.AperFunction,Material*%
%ADD32C,1.500000*%
%AMPPAD027*
4,1,36,
-0.635000,0.762000,
0.635000,0.762000,
0.660970,0.759470,
0.684980,0.752200,
0.706580,0.740650,
0.725290,0.725290,
0.740650,0.706570,
0.752200,0.684980,
0.759470,0.660970,
0.762000,0.635000,
0.762000,-0.635000,
0.759470,-0.660970,
0.752200,-0.684980,
0.740650,-0.706570,
0.725290,-0.725290,
0.706580,-0.740650,
0.684980,-0.752200,
0.660970,-0.759470,
0.635000,-0.762000,
-0.635000,-0.762000,
-0.660970,-0.759470,
-0.684980,-0.752200,
-0.706580,-0.740650,
-0.725290,-0.725290,
-0.740650,-0.706570,
-0.752200,-0.684980,
-0.759470,-0.660970,
-0.762000,-0.635000,
-0.762000,0.635000,
-0.759470,0.660970,
-0.752200,0.684980,
-0.740650,0.706570,
-0.725290,0.725290,
-0.706580,0.740650,
-0.684980,0.752200,
-0.660970,0.759470,
-0.635000,0.762000,
0*%
%TA.AperFunction,Material*%
%ADD33PPAD027*%
%AMPPAD028*
4,1,4,
-0.590000,0.590000,
0.590000,0.590000,
0.590000,-0.590000,
-0.590000,-0.590000,
-0.590000,0.590000,
0*%
%TA.AperFunction,Material*%
%ADD34PPAD028*%
%ADD35C,1.180000*%
%AMPPAD030*
4,1,4,
-0.565000,0.565000,
0.565000,0.565000,
0.565000,-0.565000,
-0.565000,-0.565000,
-0.565000,0.565000,
0*%
%ADD36PPAD030*%
%ADD37C,1.130000*%
%TA.AperFunction,Material*%
%ADD38C,2.250000*%
%AMPPAD033*
4,1,36,
0.762000,0.635000,
0.762000,-0.635000,
0.759470,-0.660970,
0.752200,-0.684980,
0.740650,-0.706580,
0.725290,-0.725290,
0.706570,-0.740650,
0.684980,-0.752200,
0.660970,-0.759470,
0.635000,-0.762000,
-0.635000,-0.762000,
-0.660970,-0.759470,
-0.684980,-0.752200,
-0.706570,-0.740650,
-0.725290,-0.725290,
-0.740650,-0.706580,
-0.752200,-0.684980,
-0.759470,-0.660970,
-0.762000,-0.635000,
-0.762000,0.635000,
-0.759470,0.660970,
-0.752200,0.684980,
-0.740650,0.706580,
-0.725290,0.725290,
-0.706570,0.740650,
-0.684980,0.752200,
-0.660970,0.759470,
-0.635000,0.762000,
0.635000,0.762000,
0.660970,0.759470,
0.684980,0.752200,
0.706570,0.740650,
0.725290,0.725290,
0.740650,0.706580,
0.752200,0.684980,
0.759470,0.660970,
0.762000,0.635000,
0*%
%TA.AperFunction,Material*%
%ADD39PPAD033*%
%AMPPAD034*
4,1,36,
-1.016000,1.143000,
1.016000,1.143000,
1.041970,1.140470,
1.065980,1.133200,
1.087580,1.121650,
1.106290,1.106290,
1.121650,1.087570,
1.133200,1.065980,
1.140470,1.041970,
1.143000,1.016000,
1.143000,-1.016000,
1.140470,-1.041970,
1.133200,-1.065980,
1.121650,-1.087570,
1.106290,-1.106290,
1.087580,-1.121650,
1.065980,-1.133200,
1.041970,-1.140470,
1.016000,-1.143000,
-1.016000,-1.143000,
-1.041970,-1.140470,
-1.065980,-1.133200,
-1.087580,-1.121650,
-1.106290,-1.106290,
-1.121650,-1.087570,
-1.133200,-1.065980,
-1.140470,-1.041970,
-1.143000,-1.016000,
-1.143000,1.016000,
-1.140470,1.041970,
-1.133200,1.065980,
-1.121650,1.087570,
-1.106290,1.106290,
-1.087580,1.121650,
-1.065980,1.133200,
-1.041970,1.140470,
-1.016000,1.143000,
0*%
%TA.AperFunction,Material*%
%ADD40PPAD034*%
%ADD41C,2.032000*%
%ADD42C,2.540000*%
%ADD43C,1.651000*%
%TA.AperFunction,Material*%
%ADD44C,2.780000*%
%TA.AperFunction,Profile*%
%ADD26C,0.203200*%
%TD.AperFunction*%
D30*
X-11493500Y+24701500D03*
X-8763000Y+27686000D03*
X-5143500Y+28321000D03*
X-12827000Y+26606500D03*
X-12001500Y+31242000D03*
X-14478000Y+27241500D03*
X-8509000Y+26225500D03*
X-14986000Y+26225500D03*
X-9588500Y+31750000D03*
X-12001500Y+26035000D03*
X-14097000Y+26035000D03*
X-13398500Y+28321000D03*
X-13970000Y+26987500D03*
X-12700000Y+26987500D03*
X-12700000Y+27241500D03*
X-12255500Y+26733500D03*
X-15621000Y+26289000D03*
X-17907000Y+26035000D03*
X-12954000Y+27749500D03*
X-13906500Y+33528000D03*
X-18288000Y+28257500D03*
X-9334500Y+26098500D03*
X-14478000Y+25717500D03*
X-15557500Y+25717500D03*
X-15811500Y+30797500D03*
X-12509500Y+30797500D03*
X-12319000Y+32512000D03*
X-4254500Y+27622500D03*
X-5270500Y+28448000D03*
X-5524500Y+27876500D03*
X-3400000Y+25250000D03*
X-5750000Y+24532000D03*
X-10049500Y+25700000D03*
X-10049500Y+27050000D03*
X-18050000Y+26250000D03*
X-18400000Y+25900000D03*
X-6990000Y+30400000D03*
X-226000Y+30400000D03*
X-18800000Y+28500000D03*
X-17100000Y+28500000D03*
D31*
X+105150000Y+98840000D03*
D32*
X-2590000Y+33640000D03*
X-2336000Y+33640000D03*
X-2082000Y+33640000D03*
X-1828000Y+33640000D03*
X-1574000Y+33640000D03*
X-1574000Y+35164000D03*
X-1828000Y+35164000D03*
X-2082000Y+35164000D03*
X-2336000Y+35164000D03*
X-2590000Y+35164000D03*
X-4590000Y+33650000D03*
X-4336000Y+33650000D03*
X-4082000Y+33650000D03*
X-3828000Y+33650000D03*
X-3574000Y+33650000D03*
X-3574000Y+35174000D03*
X-3828000Y+35174000D03*
X-4082000Y+35174000D03*
X-4336000Y+35174000D03*
X-4590000Y+35174000D03*
X-8990000Y+33640000D03*
X-8736000Y+33640000D03*
X-8482000Y+33640000D03*
X-8228000Y+33640000D03*
X-7974000Y+33640000D03*
X-7974000Y+35164000D03*
X-8228000Y+35164000D03*
X-8482000Y+35164000D03*
X-8736000Y+35164000D03*
X-8990000Y+35164000D03*
X-11000000Y+33640000D03*
X-10746000Y+33640000D03*
X-10492000Y+33640000D03*
X-10238000Y+33640000D03*
X-9984000Y+33640000D03*
X-9984000Y+35164000D03*
X-10238000Y+35164000D03*
X-10492000Y+35164000D03*
X-10746000Y+35164000D03*
X-11000000Y+35164000D03*
X-15380000Y+33660000D03*
X-15126000Y+33660000D03*
X-14872000Y+33660000D03*
X-14618000Y+33660000D03*
X-14364000Y+33660000D03*
X-14364000Y+35184000D03*
X-14618000Y+35184000D03*
X-14872000Y+35184000D03*
X-15126000Y+35184000D03*
X-15380000Y+35184000D03*
X-17380000Y+33650000D03*
X-17126000Y+33650000D03*
X-16872000Y+33650000D03*
X-16618000Y+33650000D03*
X-16364000Y+33650000D03*
X-16364000Y+35174000D03*
X-16618000Y+35174000D03*
X-16872000Y+35174000D03*
X-17126000Y+35174000D03*
X-17380000Y+35174000D03*
D33*
X-2150000Y+27390000D03*
D31*
X-1896000Y+27390000D03*
X-1642000Y+27390000D03*
X-1388000Y+27390000D03*
X-1134000Y+27390000D03*
X-880000Y+27390000D03*
X-626000Y+27390000D03*
X-626000Y+28152000D03*
X-880000Y+28152000D03*
X-1134000Y+28152000D03*
X-1388000Y+28152000D03*
X-1642000Y+28152000D03*
X-1896000Y+28152000D03*
X-2150000Y+28152000D03*
D33*
X-2390000Y+29380000D03*
D31*
X-2136000Y+29380000D03*
X-1882000Y+29380000D03*
X-1628000Y+29380000D03*
X-1374000Y+29380000D03*
X-1120000Y+29380000D03*
X-866000Y+29380000D03*
X-612000Y+29380000D03*
X-612000Y+30142000D03*
X-866000Y+30142000D03*
X-1120000Y+30142000D03*
X-1374000Y+30142000D03*
X-1628000Y+30142000D03*
X-1882000Y+30142000D03*
X-2136000Y+30142000D03*
X-2390000Y+30142000D03*
D33*
X-5140000Y+27380000D03*
D31*
X-4886000Y+27380000D03*
X-4632000Y+27380000D03*
X-4378000Y+27380000D03*
X-4124000Y+27380000D03*
X-3870000Y+27380000D03*
X-3616000Y+27380000D03*
X-3616000Y+28142000D03*
X-3870000Y+28142000D03*
X-4124000Y+28142000D03*
X-4378000Y+28142000D03*
X-4632000Y+28142000D03*
X-4886000Y+28142000D03*
X-5140000Y+28142000D03*
D33*
X-5400000Y+29380000D03*
D31*
X-5146000Y+29380000D03*
X-4892000Y+29380000D03*
X-4638000Y+29380000D03*
X-4384000Y+29380000D03*
X-4130000Y+29380000D03*
X-3876000Y+29380000D03*
X-3622000Y+29380000D03*
X-3622000Y+30142000D03*
X-3876000Y+30142000D03*
X-4130000Y+30142000D03*
X-4384000Y+30142000D03*
X-4638000Y+30142000D03*
X-4892000Y+30142000D03*
X-5146000Y+30142000D03*
X-5400000Y+30142000D03*
D33*
X-9140000Y+27380000D03*
D31*
X-8886000Y+27380000D03*
X-8632000Y+27380000D03*
X-8378000Y+27380000D03*
X-8124000Y+27380000D03*
X-7870000Y+27380000D03*
X-7616000Y+27380000D03*
X-7616000Y+28142000D03*
X-7870000Y+28142000D03*
X-8124000Y+28142000D03*
X-8378000Y+28142000D03*
X-8632000Y+28142000D03*
X-8886000Y+28142000D03*
X-9140000Y+28142000D03*
D33*
X-9400000Y+29380000D03*
D31*
X-9146000Y+29380000D03*
X-8892000Y+29380000D03*
X-8638000Y+29380000D03*
X-8384000Y+29380000D03*
X-8130000Y+29380000D03*
X-7876000Y+29380000D03*
X-7622000Y+29380000D03*
X-7622000Y+30142000D03*
X-7876000Y+30142000D03*
X-8130000Y+30142000D03*
X-8384000Y+30142000D03*
X-8638000Y+30142000D03*
X-8892000Y+30142000D03*
X-9146000Y+30142000D03*
X-9400000Y+30142000D03*
D33*
X-12140000Y+27380000D03*
D31*
X-11886000Y+27380000D03*
X-11632000Y+27380000D03*
X-11378000Y+27380000D03*
X-11124000Y+27380000D03*
X-10870000Y+27380000D03*
X-10616000Y+27380000D03*
X-10616000Y+28142000D03*
X-10870000Y+28142000D03*
X-11124000Y+28142000D03*
X-11378000Y+28142000D03*
X-11632000Y+28142000D03*
X-11886000Y+28142000D03*
X-12140000Y+28142000D03*
D33*
X-12400000Y+29370000D03*
D31*
X-12146000Y+29370000D03*
X-11892000Y+29370000D03*
X-11638000Y+29370000D03*
X-11384000Y+29370000D03*
X-11130000Y+29370000D03*
X-10876000Y+29370000D03*
X-10622000Y+29370000D03*
X-10622000Y+30132000D03*
X-10876000Y+30132000D03*
X-11130000Y+30132000D03*
X-11384000Y+30132000D03*
X-11638000Y+30132000D03*
X-11892000Y+30132000D03*
X-12146000Y+30132000D03*
X-12400000Y+30132000D03*
D33*
X-15130000Y+27380000D03*
D31*
X-14876000Y+27380000D03*
X-14622000Y+27380000D03*
X-14368000Y+27380000D03*
X-14114000Y+27380000D03*
X-13860000Y+27380000D03*
X-13606000Y+27380000D03*
X-13606000Y+28142000D03*
X-13860000Y+28142000D03*
X-14114000Y+28142000D03*
X-14368000Y+28142000D03*
X-14622000Y+28142000D03*
X-14876000Y+28142000D03*
X-15130000Y+28142000D03*
D33*
X-15400000Y+29380000D03*
D31*
X-15146000Y+29380000D03*
X-14892000Y+29380000D03*
X-14638000Y+29380000D03*
X-14384000Y+29380000D03*
X-14130000Y+29380000D03*
X-13876000Y+29380000D03*
X-13622000Y+29380000D03*
X-13622000Y+30142000D03*
X-13876000Y+30142000D03*
X-14130000Y+30142000D03*
X-14384000Y+30142000D03*
X-14638000Y+30142000D03*
X-14892000Y+30142000D03*
X-15146000Y+30142000D03*
X-15400000Y+30142000D03*
D33*
X-18140000Y+27380000D03*
D31*
X-17886000Y+27380000D03*
X-17632000Y+27380000D03*
X-17378000Y+27380000D03*
X-17124000Y+27380000D03*
X-16870000Y+27380000D03*
X-16616000Y+27380000D03*
X-16616000Y+28142000D03*
X-16870000Y+28142000D03*
X-17124000Y+28142000D03*
X-17378000Y+28142000D03*
X-17632000Y+28142000D03*
X-17886000Y+28142000D03*
X-18140000Y+28142000D03*
D33*
X-18400000Y+29380000D03*
D31*
X-18146000Y+29380000D03*
X-17892000Y+29380000D03*
X-17638000Y+29380000D03*
X-17384000Y+29380000D03*
X-17130000Y+29380000D03*
X-16876000Y+29380000D03*
X-16622000Y+29380000D03*
X-16622000Y+30142000D03*
X-16876000Y+30142000D03*
X-17130000Y+30142000D03*
X-17384000Y+30142000D03*
X-17638000Y+30142000D03*
X-17892000Y+30142000D03*
X-18146000Y+30142000D03*
X-18400000Y+30142000D03*
D33*
X-18140000Y+25880000D03*
D31*
X-17886000Y+25880000D03*
X-17632000Y+25880000D03*
X-17378000Y+25880000D03*
X-17124000Y+25880000D03*
X-16870000Y+25880000D03*
X-16616000Y+25880000D03*
X-16616000Y+26642000D03*
X-16870000Y+26642000D03*
X-17124000Y+26642000D03*
X-17378000Y+26642000D03*
X-17632000Y+26642000D03*
X-17886000Y+26642000D03*
X-18140000Y+26642000D03*
D33*
X-9140000Y+25880000D03*
D31*
X-8886000Y+25880000D03*
X-8632000Y+25880000D03*
X-8378000Y+25880000D03*
X-8124000Y+25880000D03*
X-7870000Y+25880000D03*
X-7616000Y+25880000D03*
X-7616000Y+26642000D03*
X-7870000Y+26642000D03*
X-8124000Y+26642000D03*
X-8378000Y+26642000D03*
X-8632000Y+26642000D03*
X-8886000Y+26642000D03*
X-9140000Y+26642000D03*
D33*
X-15130000Y+25880000D03*
D31*
X-14876000Y+25880000D03*
X-14622000Y+25880000D03*
X-14368000Y+25880000D03*
X-14114000Y+25880000D03*
X-13860000Y+25880000D03*
X-13606000Y+25880000D03*
X-13606000Y+26642000D03*
X-13860000Y+26642000D03*
X-14114000Y+26642000D03*
X-14368000Y+26642000D03*
X-14622000Y+26642000D03*
X-14876000Y+26642000D03*
X-15130000Y+26642000D03*
D33*
X-12140000Y+25880000D03*
D31*
X-11886000Y+25880000D03*
X-11632000Y+25880000D03*
X-11378000Y+25880000D03*
X-11124000Y+25880000D03*
X-10870000Y+25880000D03*
X-10616000Y+25880000D03*
X-10616000Y+26642000D03*
X-10870000Y+26642000D03*
X-11124000Y+26642000D03*
X-11378000Y+26642000D03*
X-11632000Y+26642000D03*
X-11886000Y+26642000D03*
X-12140000Y+26642000D03*
D34*
X-3883700Y+25869000D03*
D35*
X-3883700Y+25615000D03*
X-3883700Y+25361000D03*
X-3883700Y+25107000D03*
X-3883700Y+24853000D03*
X-3883700Y+24599000D03*
X-3883700Y+24345000D03*
X-3883700Y+24091000D03*
X-3096300Y+24091000D03*
X-3096300Y+24345000D03*
X-3096300Y+24599000D03*
X-3096300Y+24853000D03*
X-3096300Y+25107000D03*
X-3096300Y+25361000D03*
X-3096300Y+25615000D03*
X-3096300Y+25869000D03*
D36*
X-1887000Y+25879000D03*
D37*
X-1887000Y+25625000D03*
X-1887000Y+25371000D03*
X-1887000Y+25117000D03*
X-1887000Y+24863000D03*
X-1887000Y+24609000D03*
X-1887000Y+24355000D03*
X-1887000Y+24101000D03*
X-1093000Y+24101000D03*
X-1093000Y+24355000D03*
X-1093000Y+24609000D03*
X-1093000Y+24863000D03*
X-1093000Y+25117000D03*
X-1093000Y+25371000D03*
X-1093000Y+25625000D03*
X-1093000Y+25879000D03*
D38*
X-8780000Y+23770000D03*
X-7510000Y+23770000D03*
X-7510000Y+24532000D03*
X-8780000Y+24532000D03*
X-11150000Y+23770000D03*
X-9880000Y+23770000D03*
X-9880000Y+24532000D03*
X-11150000Y+24532000D03*
X-13490000Y+23780000D03*
X-12220000Y+23780000D03*
X-12220000Y+24542000D03*
X-13490000Y+24542000D03*
D39*
X-18210000Y+24950000D03*
D31*
X-18210000Y+24696000D03*
X-18210000Y+24442000D03*
X-18210000Y+24188000D03*
X-18210000Y+23934000D03*
X-18210000Y+23680000D03*
X-18210000Y+23426000D03*
X-18210000Y+23172000D03*
X-17448000Y+23172000D03*
X-17448000Y+23426000D03*
X-17448000Y+23680000D03*
X-17448000Y+23934000D03*
X-17448000Y+24188000D03*
X-17448000Y+24442000D03*
X-17448000Y+24696000D03*
X-17448000Y+24950000D03*
D36*
X-16647000Y+24929000D03*
D37*
X-16647000Y+24675000D03*
X-16647000Y+24421000D03*
X-16647000Y+24167000D03*
X-16647000Y+23913000D03*
X-16647000Y+23659000D03*
X-16647000Y+23405000D03*
X-16647000Y+23151000D03*
X-15853000Y+23151000D03*
X-15853000Y+23405000D03*
X-15853000Y+23659000D03*
X-15853000Y+23913000D03*
X-15853000Y+24167000D03*
X-15853000Y+24421000D03*
X-15853000Y+24675000D03*
X-15853000Y+24929000D03*
D40*
X-470000Y+34840000D03*
X-216000Y+34840000D03*
X-480000Y+33810000D03*
X-226000Y+33810000D03*
D38*
X-810000Y+30950000D03*
X+460000Y+30950000D03*
X+460000Y+31712000D03*
X-810000Y+31712000D03*
D41*
X-5510000Y+26000000D03*
X-4494000Y+26000000D03*
X-5510000Y+25550000D03*
X-4494000Y+25550000D03*
X-5510000Y+25070000D03*
X-4494000Y+25070000D03*
X-3780000Y+26440000D03*
X-3272000Y+26440000D03*
X-1820000Y+26430000D03*
X-1312000Y+26430000D03*
X-2600000Y+35940000D03*
X-1584000Y+35940000D03*
X-17400000Y+35940000D03*
X-16384000Y+35940000D03*
X-11000000Y+35940000D03*
X-9984000Y+35940000D03*
D42*
X-12494000Y+31940000D03*
X-13510000Y+31940000D03*
X-12494000Y+31490000D03*
X-13510000Y+31490000D03*
X-12494000Y+31030000D03*
X-13510000Y+31030000D03*
X-12494000Y+30560000D03*
X-13510000Y+30560000D03*
D41*
X-15410000Y+35944000D03*
X-14394000Y+35944000D03*
X-9000000Y+35944000D03*
X-7984000Y+35944000D03*
X-4610000Y+35940000D03*
X-3594000Y+35940000D03*
X-800000Y+32760000D03*
X+216000Y+32760000D03*
D43*
X-20000Y+24290000D03*
X-20000Y+24490000D03*
D41*
X-7000000Y+32000000D03*
X-5984000Y+32000000D03*
X-7000000Y+31580000D03*
X-5984000Y+31580000D03*
X-7000000Y+31150000D03*
X-5984000Y+31150000D03*
X-6990000Y+30740000D03*
X-5974000Y+30740000D03*
D44*
X-14990000Y+24730000D03*
X-14990000Y+24260000D03*
X-14990000Y+23790000D03*
D31*
X-4100000Y+53400000D03*
D41*
X-2450000Y+26450000D03*
X-2750000Y+26450000D03*
D26*
X-19350000Y+21790000D02*
X+1550000Y+21790000D01*
X+1550000Y+37360000D01*
X-19350000Y+37360000D01*
X-19350000Y+21790000D01*
M02*
